<svg width="45" height="49" viewBox="0 0 45 49" fill="none" xmlns="http://www.w3.org/2000/svg">
<g clip-path="url(#clip0)">
<path d="M43.6942 14.3591C39.096 9.04271 28.1493 9.4145 27.4048 13.6977C26.7884 17.2678 30.5259 19.2653 32.3151 21.1156C34.3834 23.2559 34.7346 26.7134 33.0296 29.0721C32.3152 30.0515 28.0734 34.3524 29.335 38.6002C29.9773 40.7551 31.4194 41.7209 33.3094 42.1138C39.5893 43.422 40.2508 38.4325 40.3162 36.2173C40.3193 34.1551 40.7343 32.1144 41.5369 30.2153C43.6356 25.4417 46.8128 17.9654 43.6942 14.3591Z" fill="#F6F6F6"/>
<path d="M27.8145 0.0209513C29.2334 -0.208445 30.6826 1.47228 31.0485 3.7685C31.4144 6.06472 30.5675 8.11761 29.1499 8.3455C27.7322 8.57339 26.281 6.89605 25.9125 4.59643C25.544 2.29682 26.3961 0.249217 27.8145 0.0209513ZM36.1116 4.36818C36.1984 5.97735 35.4667 7.32434 34.4747 7.37783C33.4827 7.43132 32.6046 6.17246 32.5166 4.56179C32.4286 2.95112 33.1641 1.60562 34.1558 1.55063C35.1474 1.49563 36.0243 2.75714 36.1116 4.36818V4.36818ZM40.2826 5.5276C40.3545 6.83429 39.7562 7.9289 38.9496 7.97259C38.1429 8.01629 37.4337 6.99324 37.3623 5.68579C37.2908 4.37835 37.8861 3.28523 38.6924 3.23965C39.4986 3.19407 40.2112 4.21977 40.2826 5.5276V5.5276ZM42.8518 7.45956C42.7833 8.42423 42.2437 9.17307 41.6484 9.13088C41.0531 9.08869 40.6237 8.27054 40.6922 7.30663C40.7606 6.34271 41.2987 5.59124 41.8955 5.63494C42.4923 5.67863 42.9202 6.49377 42.8518 7.45919V7.45956ZM44.6733 9.73656C44.6211 10.5088 44.1886 11.105 43.714 11.0723C43.2395 11.0395 42.8958 10.3848 42.9495 9.61453C43.0033 8.84423 43.4358 8.24606 43.9122 8.28071C44.3887 8.31537 44.7278 8.96777 44.6733 9.73656Z" fill="#F6F6F6"/>
<path d="M17.5957 20.37C16.8508 16.0861 5.90452 15.718 1.30588 21.0311C-1.81264 24.637 1.36494 32.1129 3.46251 36.8869C4.26516 38.7849 4.6807 40.8246 4.68465 42.8859C4.75009 45.1011 5.41305 50.0921 11.6915 48.7854C13.5796 48.3932 15.0236 47.4293 15.664 45.2725C16.926 41.0247 12.682 36.7219 11.9712 35.7426C10.2659 33.3838 10.6175 29.9278 12.6857 27.786C14.4734 25.9369 18.2117 23.9401 17.5957 20.37Z" fill="#F6F6F6"/>
<path d="M13.9469 10.4437C14.3162 8.14599 15.7647 6.4664 17.1808 6.69429C18.597 6.92218 19.4473 8.9713 19.0802 11.2713C18.7132 13.5713 17.2624 15.2486 15.844 15.0204C14.4256 14.7921 13.5795 12.7433 13.9469 10.4437ZM12.4867 11.2321C12.3983 12.8413 11.5221 14.102 10.5286 14.0466C9.53513 13.9913 8.80185 12.6458 8.88985 11.0351C8.97784 9.42444 9.85215 8.16521 10.8453 8.22058C11.8384 8.27595 12.5758 9.62408 12.4867 11.2321ZM7.63573 12.3591C7.56466 13.667 6.85508 14.6904 6.04884 14.6459C5.2426 14.6015 4.64733 13.5072 4.7199 12.2013C4.79248 10.8954 5.50094 9.8708 6.30567 9.91262C7.11041 9.95443 7.70756 11.0528 7.63762 12.3591H7.63573ZM4.30588 13.9788C4.37394 14.9431 3.9445 15.7605 3.3511 15.8035C2.7577 15.8464 2.2177 15.0964 2.14776 14.1303C2.07781 13.1641 2.50726 12.3471 3.10141 12.3041C3.69556 12.2612 4.23932 13.0108 4.30776 13.9781L4.30588 13.9788ZM2.0436 16.2905C2.09963 17.0608 1.75779 17.7155 1.28135 17.7479C0.804899 17.7802 0.378855 17.1828 0.322073 16.4125C0.26529 15.6422 0.607861 14.9891 1.08318 14.9567C1.5585 14.9243 1.99208 15.5172 2.04661 16.2898L2.0436 16.2905Z" fill="#F6F6F6"/>
</g>
<defs>
<clipPath id="clip0">
<rect width="45" height="49" fill="white"/>
</clipPath>
</defs>
</svg>
