<svg width="38" height="38" viewBox="0 0 38 38" fill="none" xmlns="http://www.w3.org/2000/svg">
<g filter="url(#filter0_d)">
<rect x="4" width="30" height="30" rx="4" fill="#2FD09A"/>
</g>
<path d="M26.0312 17.875H24.8438C24.6863 17.875 24.5353 17.9376 24.4239 18.0489C24.3126 18.1603 24.25 18.3113 24.25 18.4687V22.625H12.375V10.75H17.7188C17.8762 10.75 18.0272 10.6874 18.1386 10.5761C18.2499 10.4647 18.3125 10.3137 18.3125 10.1562V8.96875C18.3125 8.81128 18.2499 8.66026 18.1386 8.54891C18.0272 8.43756 17.8762 8.375 17.7188 8.375H11.7812C11.3088 8.375 10.8558 8.56267 10.5217 8.89672C10.1877 9.23077 10 9.68383 10 10.1562V23.2187C10 23.6912 10.1877 24.1442 10.5217 24.4783C10.8558 24.8123 11.3088 25 11.7812 25H24.8438C25.3162 25 25.7692 24.8123 26.1033 24.4783C26.4373 24.1442 26.625 23.6912 26.625 23.2187V18.4687C26.625 18.3113 26.5624 18.1603 26.4511 18.0489C26.3397 17.9376 26.1887 17.875 26.0312 17.875ZM28.1094 6H23.3594C22.5663 6 22.17 6.9615 22.7285 7.52148L24.0544 8.8474L15.0098 17.8887C14.9267 17.9715 14.8609 18.0698 14.8159 18.178C14.771 18.2863 14.7478 18.4024 14.7478 18.5196C14.7478 18.6368 14.771 18.7529 14.8159 18.8611C14.8609 18.9694 14.9267 19.0677 15.0098 19.1504L15.851 19.9902C15.9338 20.0733 16.0321 20.1391 16.1404 20.1841C16.2486 20.229 16.3647 20.2522 16.4819 20.2522C16.5991 20.2522 16.7152 20.229 16.8234 20.1841C16.9317 20.1391 17.03 20.0733 17.1128 19.9902L26.153 10.9474L27.4785 12.2715C28.0352 12.8281 29 12.4385 29 11.6406V6.89062C29 6.65442 28.9062 6.42788 28.7391 6.26086C28.5721 6.09383 28.3456 6 28.1094 6Z" fill="white"/>
<defs>
<filter id="filter0_d" x="0" y="0" width="38" height="38" filterUnits="userSpaceOnUse" color-interpolation-filters="sRGB">
<feFlood flood-opacity="0" result="BackgroundImageFix"/>
<feColorMatrix in="SourceAlpha" type="matrix" values="0 0 0 0 0 0 0 0 0 0 0 0 0 0 0 0 0 0 127 0"/>
<feOffset dy="4"/>
<feGaussianBlur stdDeviation="2"/>
<feColorMatrix type="matrix" values="0 0 0 0 0.533333 0 0 0 0 0.533333 0 0 0 0 0.533333 0 0 0 0.25 0"/>
<feBlend mode="normal" in2="BackgroundImageFix" result="effect1_dropShadow"/>
<feBlend mode="normal" in="SourceGraphic" in2="effect1_dropShadow" result="shape"/>
</filter>
</defs>
</svg>
