<svg width="638" height="376" viewBox="0 0 638 376" fill="none" xmlns="http://www.w3.org/2000/svg">
<path d="M546.067 193.783C539.056 194.484 534.289 192.1 531.064 188.174C524.754 180.322 525.175 166.02 528.119 156.344C528.259 156.064 528.4 155.924 528.54 155.783C529.241 155.363 530.223 155.783 530.223 156.625C529.241 163.355 527.278 170.086 528.54 176.957C530.363 185.931 537.093 192.381 546.628 191.259C554.761 190.278 562.613 185.089 563.735 176.396C564.857 168.964 561.211 162.093 557.986 155.783C557.706 155.223 557.986 154.942 558.266 154.662C558.126 153.961 558.547 153.119 559.388 153.119C570.746 152.699 582.104 151.717 593.462 151.857C593.602 151.857 593.742 151.857 593.882 151.998L594.163 152.418C594.303 152.839 594.023 153.26 593.602 153.26C582.524 154.942 571.026 155.223 559.809 155.363C564.717 163.075 568.503 172.61 564.717 181.584C563.314 184.669 561.071 187.333 558.266 189.156C554.621 191.82 550.274 193.362 546.067 193.783Z" fill="#023246"/>
<path d="M546.627 191.259C537.092 192.521 530.362 186.071 528.539 176.956C527.137 170.086 529.24 163.355 530.222 156.625C530.362 155.783 529.24 155.363 528.539 155.783L527.978 155.222C527.978 154.662 527.558 154.101 526.997 154.101C513.956 154.942 501.897 153.82 488.997 152.418C488.717 140.499 488.857 128.581 488.857 116.662C496.99 120.308 505.683 121.99 513.255 116.382C520.406 111.193 525.735 101.658 524.753 92.6844C524.052 85.5332 519.565 79.0831 512.694 76.9798C503.86 74.1754 495.027 78.5222 487.875 83.5701C487.034 70.109 487.735 56.3675 486.613 43.0466C500.355 45.7108 515.639 45.7108 529.521 43.6075C530.082 43.4672 530.362 43.0466 530.362 42.6259C530.783 42.4857 531.203 42.065 530.923 41.5042C527.698 34.6334 525.454 27.2018 525.174 19.6299C525.034 16.4048 525.174 12.8993 526.576 9.8145C527.137 8.55253 527.838 7.29055 528.82 6.30901C531.484 3.36439 536.812 2.94372 540.458 2.94372C560.79 2.66328 558.546 27.9029 549.852 39.5411C549.011 40.5226 550.273 41.6444 551.255 41.2237C551.255 41.2237 551.395 41.3639 551.535 41.3639C565.697 44.8694 581.682 44.7292 596.125 43.7477C594.723 55.2457 594.302 67.3046 594.723 78.8026C587.712 74.1754 578.878 72.4927 571.587 77.8211C564.996 82.5886 561.631 91.0018 562.332 99.1345C563.734 115.4 582.383 124.094 595.564 114.839C594.162 127.038 594.022 139.658 593.881 151.857C593.881 151.997 593.881 152.138 594.022 152.278C593.881 152.138 593.741 152.138 593.601 152.138C582.243 151.997 570.885 152.979 559.528 153.4C558.686 153.4 558.266 154.241 558.406 154.942C558.125 155.082 557.845 155.503 558.125 156.064C561.35 162.374 564.996 169.244 563.874 176.676C562.472 184.949 554.76 190.277 546.627 191.259ZM535.129 185.79C535.83 185.931 536.391 185.089 535.83 184.528C536.111 184.248 536.391 183.827 536.111 183.407C535.69 182.846 535.27 182.425 534.849 181.864C534.569 181.303 534.288 180.602 534.148 180.041C534.008 179.2 532.605 179.48 532.746 180.182C532.746 180.602 532.886 181.163 533.026 181.724C532.886 181.584 532.746 181.444 532.746 181.303C531.904 179.901 531.764 178.218 531.904 176.536C532.045 175.835 530.923 175.695 530.783 176.396C529.661 179.621 531.343 185.229 535.129 185.79ZM563.594 118.064C564.435 120.167 566.819 122.411 569.343 122.131C570.044 121.99 570.184 120.869 569.483 120.588C568.642 120.167 567.66 120.027 566.959 119.466C566.118 118.905 565.417 118.204 564.856 117.363C564.295 116.382 563.173 117.223 563.594 118.064ZM562.753 110.492C563.033 113.998 566.398 117.784 570.184 117.223C571.306 117.083 571.306 115.68 570.184 115.54C567.099 115.26 564.576 113.577 564.015 110.352C563.874 109.651 562.753 109.791 562.753 110.492ZM499.093 52.5815C500.215 52.5815 500.495 50.7587 499.373 50.6184C497.41 50.1978 495.167 50.1978 493.063 50.0576C492.222 50.0576 491.942 51.4598 492.783 51.6C494.886 52.0207 497.13 52.4413 499.093 52.5815ZM491.381 48.3749C493.765 48.6554 496.289 48.7956 498.672 48.6554C499.794 48.5152 499.794 46.9728 498.672 46.8325C496.289 46.6923 493.765 46.9727 491.381 47.113C490.54 47.2532 490.54 48.3749 491.381 48.3749ZM547.048 13.7407C547.188 14.582 548.591 14.4417 548.591 13.4602C548.45 10.796 545.646 8.69273 542.982 9.25361C542.281 9.39383 542.421 10.5156 543.122 10.5156C545.085 10.3754 546.627 11.7776 547.048 13.7407ZM547.889 10.5156C548.31 11.0765 549.432 10.5156 549.151 9.67428C548.03 6.86988 544.664 5.32746 541.86 5.46768C541.019 5.46768 541.019 6.72967 541.86 6.72967C544.664 7.01011 546.207 8.41231 547.889 10.5156Z" fill="#F8F8F8"/>
<path d="M535.832 184.53C536.393 185.091 535.832 185.792 535.131 185.792C531.345 185.231 529.663 179.622 530.504 176.537C530.644 175.836 531.766 175.976 531.626 176.677C531.486 178.36 531.626 179.902 532.467 181.445C532.607 181.585 532.748 181.725 532.748 181.865C532.607 181.305 532.467 180.744 532.467 180.323C532.467 179.482 533.729 179.341 533.869 180.183C534.01 180.884 534.15 181.445 534.57 182.006C534.991 182.567 535.412 182.987 535.832 183.548C536.393 183.969 536.113 184.249 535.832 184.53Z" fill="#023246"/>
<path d="M527.139 156.345C514.379 157.887 500.357 157.747 488.158 153.961C487.877 153.821 487.737 153.68 487.737 153.4C487.316 153.26 486.756 152.839 486.756 152.278C486.055 139.939 485.914 127.319 487.036 114.98C487.176 114.279 487.737 113.998 488.158 114.138C488.438 113.998 488.719 113.998 489.139 114.138C497.272 117.784 505.966 119.747 513.397 113.437C518.726 108.95 522.652 101.799 522.652 94.6478C522.512 86.7955 517.323 79.7845 509.471 78.803C501.899 77.8215 494.888 82.0281 488.438 85.3933C488.018 85.6738 487.457 85.2531 487.316 84.9727C486.615 85.1129 485.774 84.9727 485.774 84.1313C484.372 70.9507 483.11 56.2276 485.073 43.047C485.073 42.6263 485.494 42.4861 485.774 42.3459C485.774 41.9252 486.195 41.5045 486.615 41.5045C500.918 41.9252 514.659 42.3459 528.962 41.785C524.054 33.0914 520.829 21.4531 523.353 11.4975C523.353 11.3573 523.493 11.2171 523.493 11.0768C523.774 11.0768 524.194 11.0768 524.475 11.0768C524.755 11.0768 525.036 10.9366 525.176 10.7964C525.596 10.6562 525.877 10.3757 526.017 9.95508L526.578 10.2355C525.316 13.3204 525.176 16.6856 525.176 20.0509C525.456 27.763 527.84 35.0544 530.925 41.9252C531.205 42.4861 530.785 42.9067 530.364 43.047C530.364 43.4676 530.084 44.0285 529.523 44.0285C515.781 45.9916 500.357 46.1318 486.615 43.4676C487.737 56.7885 487.036 70.53 487.877 83.9911C495.029 78.9432 503.862 74.7366 512.696 77.4008C519.567 79.5041 524.054 85.9542 524.755 93.1054C525.596 102.079 520.408 111.614 513.257 116.803C505.545 122.411 496.851 120.588 488.859 117.083C488.859 129.002 488.719 140.92 488.999 152.839C501.899 154.101 513.958 155.363 526.999 154.522C527.7 154.522 527.98 155.083 527.98 155.643C527.98 155.643 527.7 156.204 527.139 156.345Z" fill="#023246"/>
<path d="M596.127 151.718C595.986 152.84 594.724 152.98 594.164 152.419L593.883 151.998C593.883 151.858 593.743 151.718 593.743 151.578C593.883 139.378 594.023 126.759 595.426 114.56C582.245 123.814 563.596 115.12 562.193 98.8549C561.492 90.8624 564.858 82.309 571.448 77.5415C578.739 72.2132 587.573 73.8958 594.584 78.5231C594.164 67.025 594.724 54.9661 595.986 43.4681C581.404 44.3094 565.559 44.5899 551.397 41.0844C551.256 41.0844 551.256 40.9442 551.116 40.9442C550.135 41.3648 548.873 40.2431 549.714 39.2615C558.408 27.6233 560.651 2.38373 540.319 2.66416C536.673 2.66416 531.345 3.22506 528.681 6.02945C527.699 7.15121 526.998 8.27297 526.437 9.53495L525.877 9.25449C526.017 8.97405 526.017 8.55341 525.596 8.13275C525.316 7.85231 525.035 7.43163 524.895 7.15119C527.98 1.96306 534.15 0.140217 540.6 -2.50222e-06C548.452 -2.15898e-06 553.5 3.36526 556.164 8.55339C556.024 8.97405 556.304 9.39472 556.725 9.67515C560.511 18.3688 558.267 31.269 552.518 39.542C567.241 39.9626 581.684 41.6453 596.547 40.9442C597.108 40.9442 597.389 41.2246 597.529 41.6453C597.669 41.7855 597.809 41.9257 597.809 42.2061C597.95 54.8259 597.669 67.5859 596.828 80.2057C596.688 81.4677 595.145 81.4677 594.724 80.4862C586.872 76.2796 578.038 74.036 570.887 80.9068C565.839 85.6743 563.736 93.1059 564.858 99.8365C567.101 113.858 583.928 120.449 595.005 111.615C595.706 111.054 596.688 111.475 596.968 112.176C597.108 112.316 597.248 112.596 597.248 112.877C597.809 125.917 596.828 139.098 596.127 151.718Z" fill="#023246"/>
<path d="M569.206 122.131C566.822 122.412 564.298 120.168 563.457 118.065C563.036 117.224 564.298 116.382 564.719 117.364C565.28 118.205 565.981 118.906 566.822 119.467C567.663 120.028 568.505 120.028 569.346 120.589C570.047 120.869 570.047 121.991 569.206 122.131Z" fill="#023246"/>
<path d="M570.186 117.224C566.4 117.785 563.035 113.999 562.754 110.494C562.614 109.793 563.876 109.652 564.016 110.354C564.577 113.579 567.101 115.261 570.186 115.542C571.308 115.682 571.308 117.084 570.186 117.224Z" fill="#023246"/>
<path d="M499.376 50.6195C500.497 50.8999 500.217 52.7228 499.095 52.5825C496.992 52.4423 494.889 52.0217 492.926 51.601C492.084 51.4608 492.224 50.0586 493.206 50.0586C495.169 50.0586 497.413 50.1988 499.376 50.6195Z" fill="#023246"/>
<path d="M498.534 48.6572C496.15 48.7974 493.626 48.5169 491.243 48.3767C490.401 48.3767 490.401 47.2549 491.243 47.1147C493.626 46.8343 496.15 46.6941 498.534 46.8343C499.796 46.9745 499.796 48.6572 498.534 48.6572Z" fill="#023246"/>
<path d="M548.594 13.4607C548.594 14.3021 547.192 14.5825 547.051 13.7412C546.631 11.7781 545.088 10.5161 543.125 10.5161C542.424 10.5161 542.284 9.39437 542.985 9.25415C545.649 8.8335 548.454 10.7966 548.594 13.4607Z" fill="#023246"/>
<path d="M524.473 10.6563C524.192 10.6563 523.772 10.6563 523.491 10.6563C523.631 10.2356 523.772 9.67474 523.912 9.25408C524.192 8.55298 524.473 7.99211 524.893 7.29102C525.174 7.57146 525.314 7.99211 525.595 8.27255C525.875 8.69321 525.875 9.11387 525.875 9.39431C525.735 9.81497 525.454 10.0954 525.034 10.2356C525.034 10.5161 524.753 10.6563 524.473 10.6563Z" fill="#023246"/>
<path d="M549.291 9.67516C549.572 10.3763 548.45 11.0774 548.029 10.5165C546.347 8.55341 544.804 7.01098 542 6.87076C541.159 6.87076 541.159 5.60879 542 5.60879C544.804 5.32835 548.17 6.87076 549.291 9.67516Z" fill="#023246"/>
<path d="M556.586 9.95573C556.165 9.81551 556.025 9.25464 556.025 8.83398C556.306 9.25464 556.446 9.53507 556.586 9.95573Z" fill="#023246"/>
<path d="M490.767 99.5596C491.469 106.571 489.085 111.338 485.159 114.563C477.306 120.873 463.004 120.452 453.329 117.508C453.048 117.368 452.908 117.227 452.768 117.087C452.347 116.386 452.768 115.404 453.609 115.404C460.34 116.386 467.07 118.349 473.941 117.087C482.915 115.264 489.365 108.534 488.243 98.9987C487.262 90.866 482.074 83.0137 473.38 81.8919C465.949 80.7701 459.078 84.4159 452.768 87.6409C452.207 87.9214 451.927 87.6409 451.646 87.3605C450.945 87.5007 450.104 87.08 450.104 86.2387C449.683 74.8809 448.701 63.5231 448.842 52.1653C448.842 52.0251 448.842 51.8849 448.982 51.7446L449.403 51.4642C449.823 51.324 450.244 51.6044 450.244 52.0251C451.927 63.1025 452.207 74.6005 452.347 85.8181C460.059 80.9104 469.594 77.1244 478.568 80.9104C481.653 82.3126 484.317 84.5561 486.14 87.3605C488.804 91.0062 490.347 95.353 490.767 99.5596Z" fill="#023246"/>
<path d="M488.243 98.9976C489.505 108.533 483.055 115.263 473.941 117.086C467.07 118.488 460.34 116.385 453.609 115.403C452.768 115.263 452.347 116.385 452.768 117.086L452.207 117.647C451.646 117.647 451.085 118.067 451.085 118.628C451.926 131.669 450.805 143.728 449.402 156.628C437.484 156.908 425.565 156.768 413.646 156.768C417.292 148.635 418.975 139.942 413.366 132.37C408.178 125.219 398.643 119.89 389.669 120.872C382.518 121.573 376.067 126.06 373.964 132.931C371.16 141.765 375.507 150.598 380.554 157.75C367.093 158.591 353.352 157.89 340.031 159.012C342.695 145.27 342.695 129.986 340.592 116.104C340.452 115.543 340.031 115.263 339.61 115.263C339.47 114.842 339.049 114.422 338.489 114.702C331.618 117.927 324.186 120.171 316.614 120.451C313.389 120.591 309.884 120.451 306.799 119.049C305.537 118.488 304.275 117.787 303.293 116.805C300.349 114.141 299.928 108.813 299.928 105.167C299.648 84.8354 324.887 87.0789 336.525 95.7725C337.507 96.6138 338.629 95.3519 338.208 94.3703C338.208 94.3703 338.348 94.2301 338.348 94.0899C341.854 79.9277 341.714 63.9426 340.732 49.5C352.23 50.9022 364.289 51.3229 375.787 50.9022C371.16 57.9132 369.477 66.747 374.805 74.0385C379.573 80.6288 387.986 83.9941 396.119 83.293C412.384 81.8908 421.078 63.2415 411.824 50.0609C424.023 51.4631 436.642 51.6033 448.842 51.7435C448.982 51.7435 449.122 51.7435 449.262 51.6033C449.122 51.7435 449.122 51.8837 449.122 52.024C448.982 63.3818 449.963 74.7395 450.384 86.0974C450.384 86.9387 451.225 87.3593 451.926 87.2191C452.067 87.4996 452.487 87.78 453.048 87.4995C459.358 84.2745 466.229 80.6288 473.66 81.7505C481.933 83.1527 487.262 90.8648 488.243 98.9976ZM482.775 110.496C482.915 109.795 482.074 109.234 481.513 109.795C481.232 109.514 480.812 109.234 480.391 109.514C479.83 109.935 479.409 110.355 478.849 110.776C478.288 111.056 477.587 111.337 477.026 111.477C476.184 111.617 476.465 113.02 477.166 112.879C477.587 112.879 478.147 112.739 478.708 112.599C478.568 112.739 478.428 112.879 478.288 112.879C476.885 113.721 475.203 113.861 473.52 113.721C472.819 113.58 472.679 114.702 473.38 114.842C476.605 115.964 482.214 114.282 482.775 110.496ZM415.049 82.031C417.152 81.1897 419.395 78.8059 419.115 76.282C418.975 75.5809 417.853 75.4407 417.572 76.1418C417.152 76.9831 417.012 77.9646 416.451 78.6657C415.89 79.507 415.189 80.2081 414.347 80.769C413.366 81.3299 414.207 82.4516 415.049 82.031ZM407.477 82.8723C410.982 82.5919 414.768 79.2266 414.207 75.4407C414.067 74.3189 412.665 74.3189 412.525 75.4407C412.244 78.5255 410.562 81.0494 407.336 81.6103C406.635 81.7505 406.776 82.8723 407.477 82.8723ZM349.566 146.532C349.566 145.41 347.743 145.13 347.603 146.252C347.182 148.215 347.182 150.458 347.042 152.562C347.042 153.403 348.444 153.683 348.584 152.842C349.005 150.739 349.426 148.495 349.566 146.532ZM345.359 154.244C345.64 151.86 345.78 149.336 345.64 146.953C345.5 145.831 343.957 145.831 343.817 146.953C343.677 149.336 343.957 151.86 344.097 154.244C344.238 155.085 345.359 155.085 345.359 154.244ZM310.725 98.5769C311.566 98.4367 311.426 97.0345 310.445 97.0345C307.78 97.1747 305.677 99.9791 306.238 102.643C306.378 103.344 307.5 103.204 307.5 102.503C307.36 100.54 308.762 98.9976 310.725 98.5769ZM307.5 97.7356C308.061 97.3149 307.5 96.1932 306.659 96.4736C303.854 97.5954 302.312 100.961 302.452 103.765C302.452 104.606 303.714 104.606 303.714 103.765C303.994 100.961 305.397 99.4182 307.5 97.7356Z" fill="#D8D8D8"/>
<path d="M481.512 109.795C482.073 109.234 482.774 109.795 482.774 110.496C482.213 114.282 476.604 115.964 473.52 115.123C472.818 114.983 472.959 113.861 473.66 114.001C475.342 114.141 476.885 114.001 478.427 113.16C478.567 113.02 478.708 112.879 478.848 112.879C478.287 113.02 477.726 113.16 477.305 113.16C476.464 113.16 476.324 111.898 477.165 111.758C477.866 111.617 478.427 111.477 478.988 111.056C479.549 110.636 479.97 110.215 480.531 109.795C480.951 109.234 481.232 109.514 481.512 109.795Z" fill="#023246"/>
<path d="M453.331 118.877C454.873 131.637 454.733 145.659 450.947 157.858C450.807 158.138 450.667 158.279 450.386 158.279C450.246 158.699 449.825 159.26 449.264 159.26C436.925 159.961 424.305 160.101 411.966 158.98C411.265 158.839 410.985 158.278 411.125 157.858C410.985 157.577 410.985 157.297 411.125 156.876C414.77 148.744 416.734 140.05 410.424 132.618C405.937 127.29 398.785 123.364 391.634 123.364C383.782 123.504 376.771 128.692 375.789 136.544C374.808 144.116 379.014 151.127 382.38 157.577C382.66 157.998 382.239 158.559 381.959 158.699C382.099 159.4 381.959 160.242 381.118 160.242C367.937 161.644 353.214 162.906 340.033 160.943C339.613 160.943 339.472 160.522 339.332 160.242C338.912 160.242 338.491 159.821 338.491 159.4C338.912 145.098 339.332 131.356 338.771 117.054C330.078 121.962 318.439 125.187 308.484 122.663C308.344 122.663 308.203 122.522 308.063 122.522C308.063 122.242 308.063 121.821 308.063 121.541C308.063 121.26 307.923 120.98 307.783 120.84C307.643 120.419 307.362 120.139 306.941 119.998L307.222 119.438C310.307 120.7 313.672 120.84 317.037 120.84C324.749 120.559 332.041 118.176 338.912 115.091C339.472 114.81 339.893 115.231 340.033 115.652C340.454 115.652 341.015 115.932 341.015 116.493C342.978 130.235 343.118 145.659 340.454 159.4C353.775 158.278 367.516 158.98 380.977 158.138C375.93 150.987 371.723 142.153 374.387 133.319C376.49 126.449 382.941 121.962 390.092 121.26C399.066 120.419 408.601 125.607 413.789 132.758C419.398 140.471 417.575 149.164 414.069 157.157C425.988 157.157 437.907 157.297 449.825 157.017C451.087 144.116 452.349 132.057 451.508 119.017C451.508 118.316 452.069 118.035 452.63 118.035C452.63 118.035 453.191 118.316 453.331 118.877Z" fill="#023246"/>
<path d="M448.702 49.5003C449.824 49.6405 449.964 50.9025 449.403 51.4633L448.983 51.7438C448.842 51.7438 448.702 51.884 448.562 51.884C436.363 51.7438 423.743 51.6036 411.544 50.2014C420.798 63.382 412.105 82.0313 395.839 83.4335C387.847 84.1346 379.293 80.7693 374.526 74.1789C369.198 66.8875 370.88 58.0537 375.507 51.0427C364.009 51.4633 351.951 50.9025 340.452 49.6405C341.294 64.2233 341.574 80.0682 338.069 94.2304C338.069 94.3706 337.929 94.3706 337.929 94.5108C338.349 95.4923 337.227 96.7543 336.246 95.913C324.608 87.2194 299.368 84.9759 299.649 105.308C299.649 108.953 300.209 114.282 303.014 116.946C304.136 117.928 305.257 118.629 306.519 119.189L306.239 119.75C305.958 119.61 305.538 119.61 305.117 120.031C304.837 120.311 304.416 120.592 304.136 120.732C298.947 117.647 297.125 111.477 296.984 105.027C296.984 97.175 300.35 92.1271 305.538 89.4629C305.958 89.6031 306.379 89.3227 306.66 88.902C315.353 85.1161 328.253 87.3596 336.526 93.1086C336.947 78.3855 338.63 63.9429 337.929 49.0796C337.929 48.5187 338.209 48.2383 338.63 48.0981C338.77 47.9579 338.91 47.8176 339.191 47.8176C351.81 47.6774 364.57 47.9579 377.19 48.7992C378.452 48.9394 378.452 50.4818 377.471 50.9025C373.264 58.7548 371.02 67.5886 377.891 74.7398C382.659 79.7877 390.09 81.891 396.821 80.7693C410.843 78.5258 417.433 61.6994 408.599 50.622C408.038 49.9209 408.459 48.9394 409.16 48.6589C409.3 48.5187 409.581 48.3785 409.861 48.3785C422.902 47.8176 436.082 48.7992 448.702 49.5003Z" fill="#023246"/>
<path d="M419.116 76.4232C419.396 78.8069 417.153 81.3309 415.049 82.1722C414.208 82.5928 413.367 81.3308 414.348 80.9102C415.19 80.3493 415.891 79.6482 416.452 78.8069C417.012 77.9656 417.012 77.1242 417.573 76.2829C417.854 75.5818 418.976 75.5818 419.116 76.4232Z" fill="#023246"/>
<path d="M414.207 75.4409C414.768 79.2269 410.982 82.5921 407.476 82.8726C406.775 83.0128 406.635 81.7508 407.336 81.6106C410.561 81.0497 412.244 78.5258 412.524 75.4409C412.664 74.3192 414.066 74.3192 414.207 75.4409Z" fill="#023246"/>
<path d="M347.604 146.251C347.884 145.129 349.707 145.41 349.567 146.532C349.427 148.635 349.006 150.738 348.585 152.701C348.445 153.543 347.043 153.402 347.043 152.421C347.043 150.458 347.183 148.214 347.604 146.251Z" fill="#023246"/>
<path d="M345.64 147.093C345.78 149.477 345.499 152.001 345.359 154.384C345.359 155.226 344.237 155.226 344.097 154.384C343.817 152.001 343.677 149.477 343.817 147.093C343.957 145.831 345.64 145.831 345.64 147.093Z" fill="#023246"/>
<path d="M310.447 97.0352C311.288 97.0352 311.569 98.4374 310.728 98.5776C308.764 98.9982 307.502 100.541 307.502 102.504C307.502 103.205 306.381 103.345 306.24 102.644C305.82 99.9798 307.783 97.1754 310.447 97.0352Z" fill="#023246"/>
<path d="M307.643 121.152C307.643 121.433 307.643 121.853 307.643 122.134C307.222 121.994 306.661 121.853 306.24 121.713C305.539 121.433 304.978 121.152 304.277 120.732C304.558 120.451 304.978 120.311 305.259 120.03C305.68 119.75 306.1 119.75 306.381 119.75C306.801 119.89 307.082 120.171 307.222 120.591C307.502 120.591 307.643 120.872 307.643 121.152Z" fill="#222221"/>
<path d="M306.658 96.3335C307.359 96.0531 308.06 97.1748 307.499 97.5955C305.536 99.2781 303.993 100.821 303.853 103.625C303.853 104.466 302.591 104.466 302.591 103.625C302.311 100.821 303.853 97.4553 306.658 96.3335Z" fill="#023246"/>
<path d="M306.938 89.043C306.798 89.4636 306.237 89.6038 305.816 89.6038C306.237 89.3234 306.517 89.1832 306.938 89.043Z" fill="#023246"/>
<path d="M258.067 201.783C251.056 202.484 246.289 200.1 243.064 196.174C236.754 188.322 237.175 174.02 240.119 164.344C240.259 164.064 240.4 163.924 240.54 163.783C241.241 163.363 242.223 163.783 242.223 164.625C241.241 171.355 239.278 178.086 240.54 184.957C242.363 193.931 249.093 200.381 258.628 199.259C266.761 198.278 274.613 193.089 275.735 184.396C276.857 176.964 273.211 170.093 269.986 163.783C269.706 163.223 269.986 162.942 270.266 162.662C270.126 161.961 270.547 161.119 271.388 161.119C282.746 160.699 294.104 159.717 305.462 159.857C305.602 159.857 305.742 159.857 305.882 159.998L306.163 160.418C306.303 160.839 306.023 161.26 305.602 161.26C294.524 162.942 283.026 163.223 271.809 163.363C276.717 171.075 280.503 180.61 276.717 189.584C275.314 192.669 273.071 195.333 270.266 197.156C266.621 199.82 262.274 201.362 258.067 201.783Z" fill="#023246"/>
<path d="M258.627 199.259C249.092 200.521 242.362 194.071 240.539 184.956C239.137 178.086 241.24 171.355 242.222 164.625C242.362 163.783 241.24 163.363 240.539 163.783L239.978 163.222C239.978 162.662 239.558 162.101 238.997 162.101C225.956 162.942 213.897 161.82 200.997 160.418C200.717 148.499 200.857 136.581 200.857 124.662C208.99 128.308 217.683 129.99 225.255 124.382C232.406 119.193 237.735 109.658 236.753 100.684C236.052 93.5332 231.565 87.0831 224.694 84.9798C215.86 82.1754 207.027 86.5222 199.875 91.5701C199.034 78.109 199.735 64.3675 198.613 51.0466C212.355 53.7108 227.639 53.7108 241.521 51.6075C242.082 51.4672 242.362 51.0466 242.362 50.6259C242.783 50.4857 243.203 50.065 242.923 49.5042C239.698 42.6334 237.454 35.2018 237.174 27.6299C237.034 24.4048 237.174 20.8993 238.576 17.8145C239.137 16.5525 239.838 15.2905 240.82 14.309C243.484 11.3644 248.812 10.9437 252.458 10.9437C272.79 10.6633 270.546 35.9029 261.852 47.5411C261.011 48.5226 262.273 49.6444 263.255 49.2237C263.255 49.2237 263.395 49.3639 263.535 49.3639C277.697 52.8694 293.682 52.7292 308.125 51.7477C306.723 63.2457 306.302 75.3046 306.723 86.8026C299.712 82.1754 290.878 80.4927 283.587 85.8211C276.996 90.5886 273.631 99.0018 274.332 107.135C275.734 123.4 294.383 132.094 307.564 122.839C306.162 135.038 306.022 147.658 305.881 159.857C305.881 159.997 305.881 160.138 306.022 160.278C305.881 160.138 305.741 160.138 305.601 160.138C294.243 159.997 282.885 160.979 271.528 161.4C270.686 161.4 270.266 162.241 270.406 162.942C270.125 163.082 269.845 163.503 270.125 164.064C273.35 170.374 276.996 177.244 275.874 184.676C274.472 192.949 266.76 198.277 258.627 199.259ZM247.129 193.79C247.83 193.931 248.391 193.089 247.83 192.528C248.111 192.248 248.391 191.827 248.111 191.407C247.69 190.846 247.27 190.425 246.849 189.864C246.569 189.303 246.288 188.602 246.148 188.041C246.008 187.2 244.605 187.48 244.746 188.182C244.746 188.602 244.886 189.163 245.026 189.724C244.886 189.584 244.746 189.444 244.746 189.303C243.904 187.901 243.764 186.218 243.904 184.536C244.045 183.835 242.923 183.695 242.783 184.396C241.661 187.621 243.343 193.229 247.129 193.79ZM275.594 126.064C276.435 128.167 278.819 130.411 281.343 130.131C282.044 129.99 282.184 128.869 281.483 128.588C280.642 128.167 279.66 128.027 278.959 127.466C278.118 126.905 277.417 126.204 276.856 125.363C276.295 124.382 275.173 125.223 275.594 126.064ZM274.753 118.492C275.033 121.998 278.398 125.784 282.184 125.223C283.306 125.083 283.306 123.68 282.184 123.54C279.099 123.26 276.576 121.577 276.015 118.352C275.874 117.651 274.753 117.791 274.753 118.492ZM211.093 60.5815C212.215 60.5815 212.495 58.7587 211.373 58.6184C209.41 58.1978 207.167 58.1978 205.063 58.0576C204.222 58.0576 203.942 59.4598 204.783 59.6C206.886 60.0207 209.13 60.4413 211.093 60.5815ZM203.381 56.3749C205.765 56.6554 208.289 56.7956 210.672 56.6554C211.794 56.5152 211.794 54.9728 210.672 54.8325C208.289 54.6923 205.765 54.9727 203.381 55.113C202.54 55.2532 202.54 56.3749 203.381 56.3749ZM259.048 21.7407C259.188 22.582 260.591 22.4417 260.591 21.4602C260.45 18.796 257.646 16.6927 254.982 17.2536C254.281 17.3938 254.421 18.5156 255.122 18.5156C257.085 18.3754 258.627 19.7776 259.048 21.7407ZM259.889 18.5156C260.31 19.0765 261.432 18.5156 261.151 17.6743C260.03 14.8699 256.664 13.3275 253.86 13.4677C253.019 13.4677 253.019 14.7297 253.86 14.7297C256.664 15.0101 258.207 16.4123 259.889 18.5156Z" fill="#B8B8B8"/>
<path d="M247.832 192.53C248.393 193.091 247.832 193.792 247.131 193.792C243.345 193.231 241.663 187.622 242.504 184.537C242.644 183.836 243.766 183.976 243.626 184.677C243.486 186.36 243.626 187.902 244.467 189.445C244.607 189.585 244.748 189.725 244.748 189.865C244.607 189.305 244.467 188.744 244.467 188.323C244.467 187.482 245.729 187.341 245.869 188.183C246.01 188.884 246.15 189.445 246.57 190.006C246.991 190.567 247.412 190.987 247.832 191.548C248.393 191.969 248.113 192.249 247.832 192.53Z" fill="#023246"/>
<path d="M239.139 164.345C226.379 165.887 212.357 165.747 200.158 161.961C199.877 161.821 199.737 161.68 199.737 161.4C199.316 161.26 198.756 160.839 198.756 160.278C198.055 147.939 197.914 135.319 199.036 122.98C199.176 122.279 199.737 121.998 200.158 122.138C200.438 121.998 200.719 121.998 201.139 122.138C209.272 125.784 217.966 127.747 225.397 121.437C230.726 116.95 234.652 109.799 234.652 102.648C234.512 94.7955 229.323 87.7845 221.471 86.803C213.899 85.8215 206.888 90.0281 200.438 93.3933C200.018 93.6738 199.457 93.2531 199.316 92.9727C198.615 93.1129 197.774 92.9726 197.774 92.1313C196.372 78.9507 195.11 64.2276 197.073 51.047C197.073 50.6263 197.494 50.4861 197.774 50.3459C197.774 49.9252 198.195 49.5045 198.615 49.5045C212.918 49.9252 226.659 50.3459 240.962 49.785C236.054 41.0914 232.829 29.4531 235.353 19.4975C235.353 19.3573 235.493 19.2171 235.493 19.0768C235.774 19.0768 236.194 19.0768 236.475 19.0768C236.755 19.0768 237.036 18.9366 237.176 18.7964C237.596 18.6562 237.877 18.3757 238.017 17.9551L238.578 18.2355C237.316 21.3204 237.176 24.6856 237.176 28.0509C237.456 35.763 239.84 43.0544 242.925 49.9252C243.205 50.4861 242.785 50.9067 242.364 51.047C242.364 51.4676 242.084 52.0285 241.523 52.0285C227.781 53.9916 212.357 54.1318 198.615 51.4676C199.737 64.7885 199.036 78.5301 199.877 91.9911C207.029 86.9432 215.862 82.7366 224.696 85.4008C231.567 87.5041 236.054 93.9542 236.755 101.105C237.596 110.08 232.408 119.614 225.257 124.803C217.545 130.411 208.851 128.588 200.859 125.083C200.859 137.002 200.719 148.92 200.999 160.839C213.899 162.101 225.958 163.363 238.999 162.522C239.7 162.522 239.98 163.083 239.98 163.643C239.98 163.643 239.7 164.204 239.139 164.345Z" fill="#023246"/>
<path d="M308.127 159.718C307.986 160.84 306.724 160.98 306.164 160.419L305.883 159.998C305.883 159.858 305.743 159.718 305.743 159.578C305.883 147.378 306.023 134.759 307.426 122.56C294.245 131.814 275.596 123.12 274.193 106.855C273.492 98.8624 276.858 90.309 283.448 85.5415C290.739 80.2132 299.573 81.8958 306.584 86.5231C306.164 75.025 306.724 62.9661 307.986 51.4681C293.404 52.3094 277.559 52.5899 263.397 49.0844C263.256 49.0844 263.256 48.9442 263.116 48.9442C262.135 49.3648 260.873 48.2431 261.714 47.2615C270.408 35.6233 272.651 10.3837 252.319 10.6642C248.673 10.6642 243.345 11.2251 240.681 14.0295C239.699 15.1512 238.998 16.273 238.437 17.5349L237.877 17.2545C238.017 16.9741 238.017 16.5534 237.596 16.1327C237.316 15.8523 237.035 15.4316 236.895 15.1512C239.98 9.96306 246.15 8.14022 252.6 8C260.452 8 265.5 11.3653 268.164 16.5534C268.024 16.9741 268.304 17.3947 268.725 17.6752C272.511 26.3688 270.267 39.269 264.518 47.542C279.241 47.9626 293.684 49.6453 308.547 48.9442C309.108 48.9442 309.389 49.2246 309.529 49.6453C309.669 49.7855 309.809 49.9257 309.809 50.2061C309.95 62.8259 309.669 75.5859 308.828 88.2057C308.688 89.4677 307.145 89.4677 306.724 88.4862C298.872 84.2796 290.038 82.036 282.887 88.9068C277.839 93.6743 275.736 101.106 276.858 107.836C279.101 121.858 295.928 128.449 307.005 119.615C307.706 119.054 308.688 119.475 308.968 120.176C309.108 120.316 309.248 120.596 309.248 120.877C309.809 133.917 308.828 147.098 308.127 159.718Z" fill="#023246"/>
<path d="M281.206 130.131C278.822 130.412 276.298 128.168 275.457 126.065C275.036 125.224 276.298 124.382 276.719 125.364C277.28 126.205 277.981 126.906 278.822 127.467C279.663 128.028 280.505 128.028 281.346 128.589C282.047 128.869 282.047 129.991 281.206 130.131Z" fill="#023246"/>
<path d="M282.186 125.224C278.4 125.785 275.035 121.999 274.754 118.494C274.614 117.793 275.876 117.652 276.016 118.354C276.577 121.579 279.101 123.261 282.186 123.542C283.308 123.682 283.308 125.084 282.186 125.224Z" fill="#023246"/>
<path d="M211.376 58.6195C212.497 58.8999 212.217 60.7228 211.095 60.5825C208.992 60.4423 206.889 60.0217 204.926 59.601C204.084 59.4608 204.224 58.0586 205.206 58.0586C207.169 58.0586 209.413 58.1988 211.376 58.6195Z" fill="#023246"/>
<path d="M210.534 56.6572C208.15 56.7974 205.626 56.5169 203.243 56.3767C202.401 56.3767 202.401 55.2549 203.243 55.1147C205.626 54.8343 208.15 54.6941 210.534 54.8343C211.796 54.9745 211.796 56.6572 210.534 56.6572Z" fill="#023246"/>
<path d="M260.594 21.4607C260.594 22.3021 259.192 22.5825 259.051 21.7412C258.631 19.7781 257.088 18.5161 255.125 18.5161C254.424 18.5161 254.284 17.3944 254.985 17.2542C257.649 16.8335 260.454 18.7966 260.594 21.4607Z" fill="#023246"/>
<path d="M236.473 18.6563C236.192 18.6563 235.772 18.6563 235.491 18.6563C235.631 18.2356 235.772 17.6747 235.912 17.2541C236.192 16.553 236.473 15.9921 236.893 15.291C237.174 15.5715 237.314 15.9921 237.595 16.2725C237.875 16.6932 237.875 17.1139 237.875 17.3943C237.735 17.815 237.454 18.0954 237.034 18.2356C237.034 18.5161 236.753 18.6563 236.473 18.6563Z" fill="#222221"/>
<path d="M261.291 17.6752C261.572 18.3763 260.45 19.0774 260.029 18.5165C258.347 16.5534 256.804 15.011 254 14.8708C253.159 14.8708 253.159 13.6088 254 13.6088C256.804 13.3284 260.17 14.8708 261.291 17.6752Z" fill="#023246"/>
<path d="M268.586 17.9557C268.165 17.8155 268.025 17.2546 268.025 16.834C268.306 17.2546 268.446 17.5351 268.586 17.9557Z" fill="#023246"/>
<path d="M203.783 104.776C204.484 111.787 202.1 116.555 198.174 119.78C190.322 126.09 176.02 125.669 166.344 122.725C166.064 122.584 165.924 122.444 165.783 122.304C165.363 121.603 165.783 120.621 166.625 120.621C173.355 121.603 180.086 123.566 186.957 122.304C195.931 120.481 202.381 113.75 201.259 104.216C200.278 96.0828 195.089 88.2305 186.396 87.1087C178.964 85.9869 172.093 89.6327 165.783 92.8577C165.223 93.1382 164.942 92.8577 164.662 92.5773C163.961 92.7175 163.119 92.2968 163.119 91.4555C162.699 80.0977 161.717 68.7399 161.857 57.3821C161.857 57.2419 161.857 57.1017 161.998 56.9614L162.418 56.681C162.839 56.5408 163.26 56.8212 163.26 57.2419C164.942 68.3193 165.223 79.8173 165.363 91.0349C173.075 86.1272 182.61 82.3412 191.584 86.1272C194.669 87.5294 197.333 89.7729 199.156 92.5773C201.82 96.223 203.362 100.57 203.783 104.776Z" fill="#023246"/>
<path d="M201.259 104.214C202.521 113.749 196.071 120.48 186.956 122.303C180.086 123.705 173.355 121.602 166.625 120.62C165.783 120.48 165.363 121.602 165.783 122.303L165.222 122.864C164.662 122.864 164.101 123.284 164.101 123.845C164.942 136.886 163.82 148.945 162.418 161.845C150.499 162.125 138.581 161.985 126.662 161.985C130.308 153.852 131.99 145.159 126.382 137.587C121.193 130.435 111.658 125.107 102.684 126.089C95.5332 126.79 89.0831 131.277 86.9798 138.148C84.1754 146.981 88.5222 155.815 93.5701 162.966C80.109 163.808 66.3675 163.107 53.0466 164.228C55.7108 150.487 55.7108 135.203 53.6075 121.321C53.4672 120.76 53.0466 120.48 52.6259 120.48C52.4857 120.059 52.065 119.639 51.5042 119.919C44.6334 123.144 37.2018 125.388 29.6299 125.668C26.4048 125.808 22.8993 125.668 19.8145 124.266C18.5525 123.705 17.2906 123.004 16.309 122.022C13.3644 119.358 12.9437 114.03 12.9437 110.384C12.6633 90.0522 37.9029 92.2957 49.5411 100.989C50.5226 101.831 51.6444 100.569 51.2238 99.5871C51.2238 99.5871 51.3639 99.4469 51.3639 99.3067C54.8694 85.1445 54.7292 69.1594 53.7477 54.7168C65.2457 56.119 77.3046 56.5397 88.8026 56.119C84.1754 63.13 82.4927 71.9638 87.8211 79.2553C92.5886 85.8456 101.002 89.2108 109.135 88.5098C125.4 87.1076 134.094 68.4583 124.839 55.2777C137.038 56.6799 149.658 56.8201 161.857 56.9603C161.997 56.9603 162.138 56.9603 162.278 56.8201C162.138 56.9603 162.138 57.1005 162.138 57.2408C161.997 68.5986 162.979 79.9563 163.4 91.3141C163.4 92.1555 164.241 92.5761 164.942 92.4359C165.082 92.7164 165.503 92.9968 166.064 92.7163C172.374 89.4913 179.244 85.8456 186.676 86.9673C194.949 88.3695 200.277 96.0816 201.259 104.214ZM195.79 115.712C195.931 115.011 195.089 114.45 194.528 115.011C194.248 114.731 193.827 114.45 193.407 114.731C192.846 115.152 192.425 115.572 191.864 115.993C191.303 116.273 190.602 116.554 190.041 116.694C189.2 116.834 189.48 118.236 190.182 118.096C190.602 118.096 191.163 117.956 191.724 117.816C191.584 117.956 191.444 118.096 191.303 118.096C189.901 118.937 188.218 119.078 186.536 118.937C185.835 118.797 185.695 119.919 186.396 120.059C189.621 121.181 195.229 119.498 195.79 115.712ZM128.064 87.2478C130.167 86.4065 132.411 84.0227 132.131 81.4988C131.99 80.7977 130.869 80.6575 130.588 81.3586C130.167 82.1999 130.027 83.1814 129.466 83.8825C128.905 84.7238 128.204 85.4249 127.363 85.9858C126.382 86.5467 127.223 87.6684 128.064 87.2478ZM120.492 88.0891C123.998 87.8087 127.784 84.4434 127.223 80.6575C127.083 79.5357 125.68 79.5357 125.54 80.6575C125.26 83.7423 123.577 86.2662 120.352 86.8271C119.651 86.9673 119.791 88.0891 120.492 88.0891ZM62.5815 151.749C62.5815 150.627 60.7587 150.347 60.6185 151.468C60.1978 153.432 60.1978 155.675 60.0576 157.778C60.0576 158.62 61.4598 158.9 61.6 158.059C62.0207 155.955 62.4413 153.712 62.5815 151.749ZM58.3749 159.461C58.6554 157.077 58.7956 154.553 58.6554 152.17C58.5152 151.048 56.9728 151.048 56.8325 152.17C56.6923 154.553 56.9727 157.077 57.113 159.461C57.2532 160.302 58.3749 160.302 58.3749 159.461ZM23.7407 103.794C24.582 103.653 24.4417 102.251 23.4602 102.251C20.796 102.392 18.6927 105.196 19.2536 107.86C19.3938 108.561 20.5156 108.421 20.5156 107.72C20.3754 105.757 21.7776 104.214 23.7407 103.794ZM20.5156 102.952C21.0765 102.532 20.5156 101.41 19.6743 101.69C16.8699 102.812 15.3275 106.177 15.4677 108.982C15.4677 109.823 16.7297 109.823 16.7297 108.982C17.0101 106.177 18.4123 104.635 20.5156 102.952Z" fill="#888888"/>
<path d="M194.528 115.011C195.089 114.45 195.79 115.011 195.79 115.712C195.229 119.498 189.62 121.181 186.535 120.34C185.834 120.199 185.974 119.078 186.675 119.218C188.358 119.358 189.9 119.218 191.443 118.377C191.583 118.236 191.723 118.096 191.864 118.096C191.303 118.236 190.742 118.377 190.321 118.377C189.48 118.377 189.34 117.115 190.181 116.974C190.882 116.834 191.443 116.694 192.004 116.273C192.565 115.853 192.985 115.432 193.546 115.011C193.967 114.45 194.247 114.731 194.528 115.011Z" fill="#023246"/>
<path d="M166.346 123.705C167.889 136.465 167.749 150.487 163.963 162.686C163.823 162.966 163.682 163.107 163.402 163.107C163.262 163.527 162.841 164.088 162.28 164.088C149.941 164.789 137.321 164.929 124.982 163.808C124.281 163.668 124 163.107 124.14 162.686C124 162.406 124 162.125 124.14 161.704C127.786 153.572 129.749 144.878 123.439 137.446C118.952 132.118 111.801 128.192 104.65 128.192C96.7975 128.332 89.7865 133.52 88.805 141.373C87.8234 148.944 92.03 155.955 95.3953 162.406C95.6757 162.826 95.2551 163.387 94.9746 163.527C95.1148 164.228 94.9746 165.07 94.1333 165.07C80.9526 166.472 66.2296 167.734 53.0489 165.771C52.6283 165.771 52.488 165.35 52.3478 165.07C51.9272 165.07 51.5065 164.649 51.5065 164.228C51.9271 149.926 52.3478 136.184 51.7869 121.882C43.0933 126.79 31.4551 130.015 21.4995 127.491C21.3592 127.491 21.219 127.351 21.0788 127.351C21.0788 127.07 21.0788 126.649 21.0788 126.369C21.0788 126.089 20.9386 125.808 20.7984 125.668C20.6581 125.247 20.3777 124.967 19.957 124.827L20.2375 124.266C23.3223 125.528 26.6876 125.668 30.0529 125.668C37.765 125.387 45.0564 123.004 51.9272 119.919C52.488 119.638 52.9087 120.059 53.0489 120.48C53.4696 120.48 54.0305 120.76 54.0305 121.321C55.9935 135.063 56.1337 150.487 53.4696 164.228C66.7904 163.107 80.532 163.808 93.9931 162.966C88.9452 155.815 84.7386 146.981 87.4028 138.147C89.5061 131.277 95.9562 126.79 103.107 126.089C112.081 125.247 121.616 130.435 126.805 137.587C132.413 145.299 130.59 153.992 127.085 161.985C139.004 161.985 150.922 162.125 162.841 161.845C164.103 148.944 165.365 136.886 164.524 123.845C164.524 123.144 165.085 122.864 165.645 122.864C165.645 122.864 166.206 123.144 166.346 123.705Z" fill="#023246"/>
<path d="M161.718 54.7171C162.84 54.8573 162.98 56.1193 162.419 56.6801L161.998 56.9606C161.858 56.9606 161.718 57.1008 161.578 57.1008C149.378 56.9606 136.759 56.8204 124.56 55.4182C133.814 68.5988 125.12 87.2481 108.855 88.6502C100.862 89.3513 92.309 85.9861 87.5415 79.3957C82.2132 72.1043 83.8958 63.2705 88.5231 56.2595C77.025 56.6801 64.9661 56.1193 53.4681 54.8573C54.3094 69.4401 54.5899 85.285 51.0844 99.4472C51.0844 99.5874 50.9442 99.5874 50.9442 99.7276C51.3648 100.709 50.2431 101.971 49.2615 101.13C37.6233 92.4362 12.3837 90.1927 12.6642 110.525C12.6642 114.17 13.2251 119.499 16.0295 122.163C17.1512 123.144 18.273 123.845 19.5349 124.406L19.2545 124.967C18.9741 124.827 18.5534 124.827 18.1328 125.248C17.8523 125.528 17.4316 125.809 17.1512 125.949C11.9631 122.864 10.1402 116.694 10 110.244C10 102.392 13.3653 97.3439 18.5534 94.6797C18.9741 94.8199 19.3947 94.5395 19.6752 94.1188C28.3688 90.3329 41.269 92.5764 49.542 98.3254C49.9626 83.6023 51.6453 69.1597 50.9442 54.2964C50.9442 53.7355 51.2246 53.4551 51.6453 53.3149C51.7855 53.1746 51.9257 53.0344 52.2061 53.0344C64.8259 52.8942 77.5859 53.1746 90.2057 54.016C91.4677 54.1562 91.4677 55.6986 90.4862 56.1193C86.2796 63.9716 84.036 72.8054 90.9068 79.9566C95.6743 85.0045 103.106 87.1078 109.836 85.9861C123.858 83.7426 130.449 66.9162 121.615 55.8388C121.054 55.1377 121.475 54.1562 122.176 53.8757C122.316 53.7355 122.596 53.5953 122.877 53.5953C135.917 53.0344 149.098 54.016 161.718 54.7171Z" fill="#023246"/>
<path d="M132.131 81.64C132.412 84.0237 130.168 86.5477 128.065 87.389C127.224 87.8096 126.382 86.5476 127.364 86.127C128.205 85.5661 128.906 84.865 129.467 84.0237C130.028 83.1824 130.028 82.341 130.589 81.4997C130.869 80.7986 131.991 80.7986 132.131 81.64Z" fill="#023246"/>
<path d="M127.222 80.6577C127.783 84.4437 123.997 87.8089 120.492 88.0894C119.791 88.2296 119.65 86.9676 120.352 86.8274C123.577 86.2665 125.259 83.7426 125.54 80.6577C125.68 79.536 127.082 79.536 127.222 80.6577Z" fill="#023246"/>
<path d="M60.6195 151.468C60.8999 150.346 62.7228 150.627 62.5825 151.748C62.4423 153.852 62.0217 155.955 61.601 157.918C61.4608 158.759 60.0586 158.619 60.0586 157.638C60.0586 155.675 60.1988 153.431 60.6195 151.468Z" fill="#023246"/>
<path d="M58.6552 152.31C58.7954 154.694 58.515 157.217 58.3747 159.601C58.3747 160.443 57.253 160.443 57.1128 159.601C56.8323 157.217 56.6921 154.694 56.8324 152.31C56.9726 151.048 58.6552 151.048 58.6552 152.31Z" fill="#023246"/>
<path d="M23.4627 102.252C24.304 102.252 24.5845 103.654 23.7432 103.794C21.7801 104.215 20.5181 105.757 20.5181 107.721C20.5181 108.422 19.3963 108.562 19.2561 107.861C18.8354 105.197 20.7985 102.392 23.4627 102.252Z" fill="#023246"/>
<path d="M20.6582 126.369C20.6582 126.649 20.6582 127.07 20.6582 127.351C20.2376 127.21 19.6767 127.07 19.256 126.93C18.5549 126.649 17.9941 126.369 17.293 125.948C17.5734 125.668 17.9941 125.528 18.2745 125.247C18.6952 124.967 19.1158 124.967 19.3963 124.967C19.8169 125.107 20.0974 125.387 20.2376 125.808C20.518 125.808 20.6582 126.089 20.6582 126.369Z" fill="#023246"/>
<path d="M19.6732 101.55C20.3743 101.27 21.0754 102.392 20.5145 102.812C18.5515 104.495 17.009 106.037 16.8688 108.842C16.8688 109.683 15.6068 109.683 15.6068 108.842C15.3264 106.037 16.8688 102.672 19.6732 101.55Z" fill="#023246"/>
<path d="M19.9538 94.2598C19.8136 94.6804 19.2527 94.8206 18.832 94.8206C19.2527 94.5402 19.5331 94.4 19.9538 94.2598Z" fill="#023246"/>
<path d="M553.458 190.58C553.317 190.72 551.774 191.703 551.774 191.703C551.633 191.703 551.633 191.843 551.353 191.843C550.791 191.983 550.23 192.264 549.668 192.404C550.089 192.545 550.37 192.966 550.37 193.387C551.072 207.28 557.668 227.63 570.018 236.19C571 235.348 572.123 234.787 573.246 234.226C577.035 232.542 581.806 232.401 586.858 232.822C586.999 231.84 587.139 230.857 587.56 229.875C577.596 228.191 568.193 221.595 567.913 210.648C567.632 198.579 575.351 185.949 587.42 183.984C587.56 183.423 588.122 183.142 588.823 183.142C602.857 184.405 619.979 187.913 619.137 205.456C618.575 218.087 608.05 228.612 595.7 230.015C593.875 230.296 592.051 230.296 590.086 230.156C589.806 230.857 589.385 231.419 589.104 232.12C588.964 232.401 588.823 232.822 588.823 233.103C595.56 233.945 602.296 235.91 607.488 237.173C608.471 237.453 608.751 238.436 608.33 239.137C608.892 241.383 609.313 243.628 609.453 246.014C609.594 246.014 609.593 246.014 609.734 246.154C617.172 249.944 620.119 256.82 621.101 264.82C622.505 275.626 621.663 286.993 621.522 297.799C624.75 298.22 626.996 302.29 626.855 305.237C626.715 308.886 623.627 311.412 620.119 311.553C616.189 311.833 612.962 308.746 612.821 304.816C612.681 301.308 615.347 298.361 618.716 297.94C618.716 282.643 623.066 258.504 609.594 248.119C610.015 260.048 606.366 272.819 605.524 284.046C604.12 301.027 604.12 318.008 605.103 335.13C605.103 335.972 604.682 336.393 603.98 336.674L603.84 336.814C598.366 339.48 591.911 340.042 586.437 337.095C586.157 336.954 586.016 336.814 586.016 336.533C585.315 336.393 584.753 335.972 584.753 335.13C584.894 326.429 585.174 317.587 585.455 308.886C585.595 301.589 584.192 299.905 576.614 299.203C573.246 298.922 569.737 298.922 566.229 298.922C563.141 304.536 565.246 315.482 565.106 321.798C565.106 325.306 565.386 329.236 563.562 332.463C560.334 338.217 553.458 337.796 547.844 336.674C547.142 336.533 547.142 335.691 547.423 335.27C547.142 335.27 546.862 334.989 546.862 334.709C541.669 310.149 545.739 283.485 555.422 260.609C558.229 253.733 562.159 243.207 568.474 237.453C561.738 234.506 557.668 225.665 554.44 219.771C549.949 211.631 546.3 202.368 548.125 193.106C548.125 192.966 548.265 192.825 548.265 192.825C547.563 192.966 546.441 192.966 545.879 192.825C544.757 192.545 543.915 191.983 543.353 191.422C543.213 191.282 543.213 191.141 543.213 191.141C543.213 191.141 543.213 191.141 543.213 191.001V190.861C543.213 190.861 543.213 190.72 543.072 190.72C542.511 190.159 541.95 189.177 541.529 188.334C539.985 184.826 541.388 180.616 544.897 178.932C548.405 177.248 552.896 178.37 554.721 181.879C555.703 183.563 555.563 187.633 554.861 189.177L553.458 190.58ZM620.54 308.746C622.645 308.465 624.329 306.641 624.189 304.395C623.908 302.01 622.364 301.168 620.54 300.185C620.119 300.326 619.698 300.185 619.277 299.905C617.172 300.606 615.488 302.431 615.628 304.816C615.768 307.483 618.014 309.167 620.54 308.746ZM615.909 205.596C616.751 190.159 600.612 187.492 588.683 186.37C588.402 186.37 588.262 186.229 587.981 186.229C578.999 188.896 573.105 196.334 571.281 205.737C568.755 219.771 581.245 228.191 594.156 227.209C605.524 226.226 615.347 217.104 615.909 205.596ZM602.155 285.73C603.278 270.574 607.208 255.136 606.225 239.839C592.612 237.032 575.491 231.559 566.65 245.312C561.176 253.873 557.106 263.557 554.019 273.24C547.563 293.309 547.002 313.518 548.405 334.428C548.405 334.709 548.405 334.849 548.265 334.989C554.861 335.13 559.773 334.568 561.878 326.85C562.86 323.201 562.018 318.008 562.018 314.219C562.018 309.167 560.755 302.852 563.281 298.22C563.141 297.799 563.281 297.238 563.843 297.098H563.983C564.123 296.957 564.123 296.957 564.123 296.817C564.685 296.115 565.387 296.256 565.948 296.677C572.403 295.414 584.894 294.291 588.122 299.484C590.367 303.132 588.543 310.57 588.543 314.64C588.402 321.377 588.262 328.253 587.981 334.989C587.981 335.13 587.981 335.13 587.981 335.27C592.753 336.393 597.524 336.393 602.015 334.288C600.892 318.149 600.892 302.01 602.155 285.73ZM550.931 189.457C552.335 188.054 553.177 186.089 552.616 183.984C551.914 181.598 549.528 180.335 547.142 180.897C544.757 181.318 543.072 183.282 543.213 185.668C543.213 186.791 543.634 187.913 544.336 188.755C544.616 189.036 545.599 190.159 546.441 190.44C546.721 190.44 547.002 190.299 547.283 190.299C547.423 190.019 547.704 190.019 547.984 190.159C549.107 190.159 549.949 189.878 550.931 189.457Z" fill="#023246"/>
<path d="M624.05 304.395C624.331 306.641 622.506 308.325 620.401 308.746C617.875 309.167 615.63 307.483 615.349 304.957C615.068 302.571 616.893 300.747 618.998 300.045C619.278 300.326 619.84 300.466 620.261 300.326C622.226 301.168 623.91 302.01 624.05 304.395Z" fill="#F5F5F5"/>
<path d="M588.683 186.371C600.472 187.493 616.611 190.16 615.909 205.597C615.348 216.965 605.524 226.227 594.297 227.069C581.386 228.051 568.896 219.771 571.422 205.597C573.106 196.054 579.14 188.756 588.122 186.09C588.262 186.371 588.543 186.371 588.683 186.371ZM610.015 202.089C610.296 203.211 611.98 202.79 611.84 201.668C611.138 198.44 608.471 195.773 605.244 195.212C604.402 195.072 603.981 196.194 604.823 196.475C607.489 197.177 609.454 199.422 610.015 202.089ZM609.734 196.475C610.576 197.317 611.84 196.054 610.998 195.212C608.752 192.826 605.805 191.563 602.577 191.563C601.735 191.563 601.735 192.826 602.577 192.826C605.384 193.107 607.77 194.51 609.734 196.475Z" fill="#F5F5F5"/>
<path d="M611.839 201.527C612.12 202.65 610.296 203.211 610.015 201.948C609.453 199.282 607.489 197.036 604.822 196.335C603.98 196.054 604.401 194.791 605.243 195.072C608.471 195.773 611.138 198.299 611.839 201.527Z" fill="#023246"/>
<path d="M610.997 195.071C611.839 195.913 610.576 197.316 609.734 196.334C607.769 194.369 605.384 192.966 602.577 192.685C601.735 192.545 601.735 191.422 602.577 191.422C605.805 191.562 608.752 192.825 610.997 195.071Z" fill="#023246"/>
<path d="M606.224 239.839C607.206 255.136 603.276 270.573 602.154 285.73C600.891 301.869 600.891 318.148 601.873 334.287C597.382 336.393 592.611 336.393 587.839 335.27C587.839 335.13 587.839 335.13 587.839 334.989C588.12 328.253 588.26 321.376 588.4 314.64C588.541 310.57 590.365 303.132 587.979 299.483C584.752 294.291 572.261 295.413 565.806 296.676C565.244 296.255 564.543 296.255 563.981 296.817C563.981 296.957 563.841 296.957 563.841 297.097H563.701C563.139 297.238 562.999 297.799 563.139 298.22C560.613 302.851 561.876 309.167 561.876 314.219C561.876 318.008 562.718 323.201 561.736 326.849C559.631 334.428 554.859 335.13 548.123 334.989C548.263 334.849 548.263 334.708 548.263 334.428C546.86 313.658 547.421 293.308 553.877 273.24C556.964 263.556 561.034 253.873 566.507 245.312C575.349 231.699 592.611 237.172 606.224 239.839ZM552.894 322.359C552.894 321.236 551.07 321.236 551.07 322.359C551.07 324.744 551.21 327.13 551.491 329.656C551.491 330.358 552.473 330.358 552.614 329.656C552.754 327.13 552.894 324.744 552.894 322.359ZM549.667 332.323C549.947 332.884 550.789 332.463 550.649 331.902C549.947 329.516 549.807 327.27 549.947 324.744C549.947 323.762 548.404 323.481 548.263 324.464C547.702 327.13 548.404 329.937 549.667 332.323Z" fill="#F5F5F5"/>
<path d="M551.07 322.36C551.07 321.237 552.895 321.237 552.895 322.36C552.895 324.745 552.754 327.131 552.474 329.657C552.474 330.359 551.491 330.359 551.351 329.657C551.211 327.131 551.07 324.745 551.07 322.36Z" fill="#023246"/>
<path d="M552.614 183.984C553.176 186.089 552.334 188.054 550.93 189.457C549.948 189.738 548.965 190.019 548.123 190.299C547.843 190.159 547.562 190.159 547.422 190.44C547.141 190.44 546.86 190.58 546.58 190.58C545.738 190.299 544.615 189.177 544.475 188.896C543.773 188.054 543.352 186.931 543.352 185.808C543.212 183.282 544.896 181.458 547.281 181.037C549.527 180.476 551.913 181.598 552.614 183.984Z" fill="#F5F5F5"/>
<path d="M550.652 331.901C550.793 332.462 549.951 332.884 549.67 332.322C548.407 330.077 547.705 327.27 548.126 324.603C548.267 323.621 549.81 323.902 549.81 324.884C549.81 327.27 549.81 329.515 550.652 331.901Z" fill="#023246"/>
<path d="M381.962 157.039C382.243 157.46 381.822 158.021 381.541 158.162C381.682 158.863 381.541 159.706 380.699 159.706" fill="#222221"/>
<path d="M475.288 263.136C476.973 267.346 474.166 271.977 470.236 273.661C466.026 275.486 460.974 273.1 459.711 268.609C459.009 265.662 460.132 262.855 462.377 261.171C462.377 261.031 462.237 261.031 462.237 260.891C460.272 249.383 453.395 235.068 441.607 230.858C441.326 233.665 441.186 236.331 441.186 238.155C441.888 265.802 445.677 293.449 458.869 318.149C459.43 319.272 458.588 320.395 457.606 320.535C456.483 322.219 453.676 323.482 452.273 324.184C447.922 326.148 443.291 326.85 438.519 326.008C437.818 325.868 437.677 325.306 437.818 324.885C433.327 317.868 430.941 310.15 428.836 302.15C428.275 299.765 427.573 297.379 427.012 294.993C426.17 291.765 426.45 291.064 423.222 289.8C419.995 288.678 415.223 290.081 411.294 290.783C412.557 296.817 413.118 302.852 413.96 308.887C414.381 312.255 416.065 317.728 414.802 321.096C412.276 327.271 400.768 326.991 395.856 324.605C395.856 324.605 395.856 324.605 395.716 324.464C395.295 324.745 394.593 324.605 394.453 324.043C386.032 292.888 389.962 255.979 399.365 225.104C375.928 219.21 365.824 184.826 373.542 164.056C371.156 163.214 369.613 160.267 370.174 157.741C371.156 153.671 375.507 151.426 379.436 152.127C383.226 152.829 386.173 156.337 385.331 160.267C384.489 164.196 379.857 166.021 376.209 165.74C376.068 165.74 376.068 165.74 375.928 165.74C369.332 186.651 379.717 214.578 399.926 223.42C400.207 222.437 400.628 221.315 400.908 220.332C401.189 219.35 402.171 219.069 402.873 219.35C402.873 219.069 403.154 218.648 403.575 218.648C410.452 217.105 417.609 216.964 424.766 216.543C428.555 216.403 435.292 214.438 438.66 216.684C441.888 218.789 442.168 224.122 441.888 229.174C455.08 231.419 463.5 247.979 465.324 260.048C465.745 259.908 466.026 259.908 466.447 259.908C469.254 257.382 474.166 260.189 475.288 263.136ZM469.815 270.574C472.061 269.311 473.745 266.083 472.201 263.697C470.798 261.452 468.833 262.154 466.587 262.294C466.307 262.294 466.166 262.294 466.026 262.154C463.781 263.276 461.816 265.662 462.798 268.188C463.781 271.135 467.289 272.118 469.815 270.574ZM447.501 322.5C448.343 322.219 455.501 319.693 455.08 318.71C454.939 318.289 455.08 318.009 455.22 317.728C445.957 299.624 441.326 279.977 439.362 259.908C438.239 248.541 439.362 236.892 438.098 225.665C437.397 220.332 436.976 220.052 431.783 219.21C428.976 218.789 425.749 219.49 423.082 219.631C416.767 219.911 410.452 220.613 403.996 220.332C403.996 220.613 403.996 220.753 403.996 221.034C398.944 238.296 395.295 255.558 394.172 273.521C393.19 290.362 395.014 306.782 395.997 323.482C399.505 322.78 403.294 323.622 406.662 322.5C408.627 321.798 411.153 320.956 411.855 318.57C412.276 316.886 411.294 313.799 411.013 311.974C410.031 304.957 408.767 297.8 408.346 290.643V290.502C408.066 289.941 408.206 288.958 409.048 288.678C414.241 287.274 425.047 281.941 428.415 288.537C430.941 293.73 431.643 300.186 433.187 305.799C435.011 311.974 437.256 317.728 440.625 323.201C440.765 323.342 440.765 323.622 440.765 323.763C443.01 323.482 445.256 323.201 447.501 322.5ZM381.822 160.828C383.366 159.004 382.384 156.057 380.419 155.074C378.173 153.811 375.226 154.653 373.683 156.618C371.858 159.004 373.121 161.811 375.788 162.653C375.928 162.653 375.928 162.793 376.068 162.933C378.033 162.372 380.419 162.512 381.822 160.828Z" fill="#023246"/>
<path d="M472.202 263.698C473.746 266.084 472.062 269.311 469.816 270.574C467.29 271.978 463.782 270.995 462.799 268.048C461.957 265.382 463.781 262.996 466.027 262.014C466.167 262.154 466.448 262.154 466.588 262.154C468.834 262.154 470.798 261.452 472.202 263.698Z" fill="#F5F5F5"/>
<path d="M455.08 318.711C455.361 319.693 448.344 322.219 447.502 322.5C445.397 323.202 443.151 323.482 440.906 323.623C440.906 323.482 440.766 323.202 440.766 323.061C437.397 317.588 435.152 311.834 433.328 305.659C431.784 300.186 431.082 293.59 428.556 288.397C425.188 281.802 414.522 287.134 409.189 288.538C408.347 288.819 408.207 289.801 408.487 290.362V290.503C408.908 297.66 410.171 304.677 411.154 311.834C411.435 313.659 412.417 316.746 411.996 318.43C411.294 320.816 408.768 321.798 406.803 322.36C403.435 323.482 399.506 322.781 396.138 323.342C395.155 306.501 393.19 290.222 394.313 273.381C395.436 255.418 399.085 238.156 404.137 220.894C404.277 220.613 404.277 220.333 404.137 220.192C410.452 220.473 416.767 219.771 423.223 219.491C426.03 219.35 429.258 218.789 431.924 219.07C436.976 219.771 437.538 220.192 438.239 225.525C439.643 236.753 438.52 248.541 439.502 259.768C441.467 279.977 446.098 299.625 455.361 317.588C455.08 318.009 454.94 318.43 455.08 318.711ZM445.677 319.272C446.379 319.834 447.221 318.992 446.66 318.29C444.835 316.465 443.572 314.501 442.871 312.115C442.73 311.694 442.029 311.834 442.169 312.255C442.59 314.922 443.853 317.588 445.677 319.272ZM442.029 319.834C442.59 320.676 443.713 319.974 443.292 319.132C441.748 316.325 439.924 313.659 438.099 310.852C437.818 310.29 436.976 310.712 437.257 311.273C438.801 314.22 440.204 317.167 442.029 319.834ZM403.435 243.629C403.716 242.647 402.312 242.366 401.891 243.208C401.47 244.471 401.19 245.594 400.909 246.857C400.769 247.278 401.47 247.699 401.751 247.278C402.312 246.155 403.014 244.892 403.435 243.629ZM401.751 243.769C402.032 243.068 400.909 242.506 400.488 243.068C398.664 245.173 398.804 248.681 399.786 251.067C400.067 251.629 401.049 251.488 400.769 250.786C400.488 249.523 400.488 248.26 400.628 246.997C400.909 245.734 401.47 244.752 401.751 243.769Z" fill="#F5F5F5"/>
<path d="M422.66 163.214C436.834 163.355 449.605 176.266 447.78 190.861C445.816 207.141 430.659 215.421 415.502 213.175C398.521 210.649 390.803 200.685 393.469 183.423C395.574 169.951 408.064 159.987 421.677 163.355C422.098 163.214 422.379 163.214 422.66 163.214ZM444.553 190.581C446.096 177.389 435.15 167.425 422.66 166.162C422.239 166.162 421.958 166.021 421.818 165.741C407.924 164.197 397.539 173.038 396.416 186.932C395.855 193.809 396.556 200.685 402.31 205.176C406.661 208.544 413.117 209.948 418.59 210.369C431.22 211.351 443.009 203.773 444.553 190.581Z" fill="#023246"/>
<path d="M446.658 318.29C447.219 318.992 446.377 319.834 445.675 319.272C443.71 317.448 442.447 314.782 442.026 312.255C441.886 311.834 442.588 311.554 442.728 312.115C443.71 314.641 444.973 316.466 446.658 318.29Z" fill="#023246"/>
<path d="M422.66 166.162C435.15 167.425 445.956 177.389 444.553 190.581C443.009 203.773 431.22 211.351 418.59 210.369C413.257 209.948 406.661 208.404 402.31 205.176C396.557 200.685 395.855 193.809 396.416 186.932C397.539 173.038 407.924 164.197 421.818 165.741C422.098 166.021 422.379 166.162 422.66 166.162ZM408.064 174.863C408.906 174.442 408.205 173.319 407.503 173.459C407.363 173.459 407.222 173.6 407.082 173.6C407.503 173.179 407.222 172.196 406.521 172.196C404.977 172.196 403.574 173.6 402.591 174.722C401.609 175.986 401.047 177.389 400.767 178.933C400.626 179.634 401.749 179.775 402.03 179.073C402.451 177.81 403.153 176.687 403.995 175.705C404.416 175.284 404.977 174.863 405.538 174.582C404.977 175.284 404.696 176.266 404.556 177.249C404.556 177.81 405.398 177.95 405.538 177.389C405.959 175.986 406.942 175.424 408.064 174.863Z" fill="#F5F5F5"/>
<path d="M443.15 319.131C443.571 319.973 442.448 320.675 441.887 319.833C440.203 317.167 438.659 314.219 437.115 311.413C436.834 310.851 437.676 310.43 437.957 310.992C439.782 313.518 441.746 316.184 443.15 319.131Z" fill="#023246"/>
<path d="M407.366 173.458C408.208 173.318 408.769 174.441 407.927 174.862C406.804 175.423 405.822 175.985 405.541 177.388C405.401 177.949 404.559 177.809 404.559 177.248C404.559 176.406 404.98 175.423 405.541 174.581C404.98 174.862 404.418 175.283 403.997 175.704C403.015 176.686 402.454 177.809 402.033 179.072C401.752 179.774 400.77 179.633 400.77 178.932C400.91 177.388 401.612 175.984 402.594 174.721C403.436 173.599 404.98 172.195 406.523 172.195C407.225 172.195 407.506 173.037 407.085 173.599C407.085 173.599 407.225 173.458 407.366 173.458Z" fill="#023246"/>
<path d="M401.891 243.208C402.312 242.366 403.716 242.646 403.435 243.629C403.014 244.892 402.312 246.014 401.751 247.277C401.47 247.698 400.769 247.418 400.909 246.856C401.19 245.734 401.47 244.471 401.891 243.208Z" fill="#023246"/>
<path d="M400.487 242.926C401.049 242.365 402.031 242.926 401.751 243.628C401.47 244.61 400.908 245.593 400.628 246.716C400.347 247.979 400.487 249.242 400.768 250.505C400.908 251.206 399.926 251.347 399.786 250.785C398.663 248.54 398.663 245.031 400.487 242.926Z" fill="#023246"/>
<path d="M380.418 155.075C382.383 156.057 383.365 159.004 381.821 160.829C380.418 162.513 378.032 162.373 376.068 162.934C375.927 162.794 375.927 162.794 375.787 162.653C372.98 161.811 371.857 159.004 373.682 156.619C375.226 154.654 378.173 153.952 380.418 155.075Z" fill="#F5F5F5"/>
<path d="M240.432 164C240.292 164.281 240.011 164.421 239.73 164.421L240.432 164Z" fill="#023246"/>
<path d="M258.395 201.893C257.553 201.893 256.29 200.91 256.15 200.91C256.009 200.77 255.869 200.63 255.729 200.489C255.448 200.209 255.448 200.209 255.308 199.928C255.167 199.647 255.167 199.647 255.027 199.507C251.799 196.419 251.799 190.104 256.711 188.28C259.518 187.157 263.307 187.999 265.131 190.525C266.535 192.49 268.359 196.7 264.009 201.191L258.395 201.893ZM264.289 200.91C264.149 201.191 264.149 201.051 264.149 201.191C264.149 201.191 263.307 201.331 262.746 201.331C269.622 217.33 265.131 243.433 247.87 250.871C258.535 277.536 257.974 309.814 256.992 337.32C256.992 338.583 255.588 339.145 254.746 338.724C254.606 338.724 254.606 338.724 254.466 338.724C249.133 339.005 243.8 338.724 238.467 338.162C237.625 338.022 236.783 337.461 236.923 336.619C238.467 324.83 238.046 313.182 238.326 301.253C232.853 301.955 227.38 302.937 221.766 303.358V303.499C221.907 309.533 221.766 315.568 221.486 321.602C221.205 325.813 221.766 331.566 219.942 335.496C216.714 342.092 205.066 339.987 199.593 339.285C198.751 339.145 198.47 338.303 198.751 337.741C201.277 311.077 201.136 284.693 201.698 257.888C201.698 256.064 201.838 254.239 201.978 252.415C192.014 257.607 184.717 275.711 184.857 286.377C184.997 286.377 185.278 286.377 185.418 286.377C188.787 286.938 190.892 290.447 190.611 293.675C190.33 297.324 186.962 299.85 183.594 300.411C180.226 300.972 175.454 299.99 175.033 295.92C174.612 291.71 178.261 289.324 181.77 288.061C182.05 287.921 182.191 288.061 182.331 288.061C182.331 287.921 182.191 287.921 182.191 287.781C180.928 279.781 184.576 271.782 188.366 264.765C191.313 259.292 195.663 251.573 202.4 250.169C203.101 246.38 204.645 242.872 208.294 240.486C212.223 237.96 216.995 236.276 222.047 235.153C221.766 234.592 221.345 234.03 221.065 233.469C220.924 233.048 220.644 232.767 220.503 232.346C206.89 234.171 193.137 225.891 191.032 211.716C189.208 199.367 199.873 184.912 212.644 183.929C212.785 183.648 213.065 183.368 213.627 183.227C220.082 181.543 228.222 180.14 233.976 184.491C236.642 186.455 239.168 189.683 241.133 193.192C243.098 196.7 244.501 200.489 244.922 203.717C246.887 217.19 235.52 228.978 223.029 231.925C223.45 232.767 223.731 233.75 224.012 234.592C224.012 234.592 224.012 234.592 224.012 234.732C228.643 233.75 233.415 233.329 237.625 233.048C238.326 233.048 238.747 233.469 238.888 233.89C239.028 234.03 239.028 234.03 239.169 234.171C242.396 238.802 244.922 243.714 247.168 248.906C262.465 239.925 265.412 217.611 259.939 201.893C259.939 201.752 259.939 201.752 259.939 201.752C259.658 201.752 259.658 201.752 259.377 201.612L264.289 200.91ZM262.886 198.665C263.728 196.56 264.851 194.314 263.447 192.35C262.465 190.806 260.219 190.385 258.535 190.806C253.623 192.209 256.43 198.524 260.36 199.226C260.5 199.226 260.5 199.226 260.64 199.367C261.342 199.086 262.044 198.946 262.886 198.665ZM253.904 335.636C254.466 319.497 254.606 303.358 252.641 287.219C250.536 268.835 244.922 252.555 237.484 235.855C228.222 237.399 213.206 238.1 207.732 246.38C202.4 254.52 204.926 268.835 204.785 278.378C204.785 297.885 205.206 318.094 200.575 337.32C204.224 337.32 208.574 337.741 211.943 336.899C217.416 335.356 217.556 330.303 217.837 325.532C218.258 318.234 218.398 310.937 218.398 303.639C218.398 302.937 218.819 302.376 219.381 302.236C219.381 301.674 219.661 301.113 220.363 300.972C226.117 299.709 232.011 299.008 237.765 298.166C238.747 298.025 239.449 298.727 239.73 299.569C240.011 299.709 240.151 299.85 240.291 300.271C242.537 311.779 241.835 323.707 240.432 335.215C244.922 335.636 249.413 335.777 253.904 335.636ZM219.942 229.119C231.731 227.575 243.659 217.049 241.554 204.138C240.853 199.226 238.046 194.034 234.818 190.385C229.345 184.21 221.766 184.631 214.469 186.455C214.188 186.596 213.767 186.455 213.486 186.315C201.838 189.262 191.453 200.77 194.681 213.26C197.628 224.628 208.715 230.522 219.942 229.119ZM183.875 297.464C185.98 296.903 188.085 295.219 188.085 292.833C187.945 290.868 186.822 289.324 184.857 289.044C184.436 289.044 184.296 288.763 184.155 288.623C183.734 288.763 183.173 288.763 182.892 288.482C183.033 288.763 182.892 289.184 182.612 289.465C180.647 290.728 177.98 292.131 177.84 294.798C177.7 297.885 181.629 298.025 183.875 297.464Z" fill="#023246"/>
<path d="M263.447 192.349C264.851 194.454 263.868 196.699 262.886 198.664C262.044 198.945 261.342 199.085 260.5 199.225C260.36 199.225 260.36 199.085 260.22 199.085C256.29 198.524 253.483 192.068 258.395 190.665C260.22 190.244 262.325 190.805 263.447 192.349Z" fill="#F5F5F5"/>
<path d="M252.64 287.218C254.464 303.217 254.324 319.496 253.903 335.635C249.412 335.775 244.921 335.635 240.29 335.214C241.693 323.706 242.536 311.637 240.15 300.269C240.15 299.989 239.869 299.708 239.588 299.568C239.448 298.726 238.606 298.024 237.624 298.164C231.87 299.006 225.975 299.708 220.222 300.971C219.52 301.111 219.379 301.673 219.239 302.234C218.678 302.515 218.257 302.936 218.257 303.638C218.257 310.935 218.116 318.233 217.695 325.531C217.415 330.302 217.274 335.354 211.801 336.898C208.293 337.88 204.082 337.319 200.434 337.319C205.065 318.233 204.644 298.024 204.644 278.376C204.644 268.833 202.258 254.519 207.591 246.379C213.064 238.099 228.081 237.397 237.343 235.854C245.062 252.694 250.535 268.833 252.64 287.218ZM241.693 256.624C241.974 257.747 243.658 257.325 243.378 256.203C242.676 253.256 240.29 249.747 237.343 248.624C237.062 248.484 236.922 248.905 237.062 249.045C238.045 250.309 239.167 251.291 240.009 252.554C240.851 253.817 241.272 255.22 241.693 256.624ZM240.009 258.729C240.43 259.571 241.693 258.869 241.272 257.887C240.29 255.782 238.466 253.957 236.641 252.414C236.22 252.133 235.799 252.694 236.08 253.115C237.904 254.799 239.027 256.624 240.009 258.729ZM209.415 323.566C209.556 322.443 208.152 322.022 207.731 323.145C207.17 325.11 207.03 327.355 206.749 329.32C206.609 329.881 207.31 330.021 207.591 329.6C208.152 327.636 209.135 325.671 209.415 323.566ZM206.889 324.689C207.17 323.847 205.907 323.425 205.486 324.127C204.082 326.373 203.802 329.179 203.802 331.846C203.802 332.548 204.924 332.548 204.924 331.846C205.205 329.179 206.047 327.074 206.889 324.689Z" fill="#F5F5F5"/>
<path d="M243.378 256.202C243.659 257.325 242.115 257.746 241.694 256.623C241.273 255.22 240.712 253.817 240.01 252.553C239.168 251.29 238.045 250.308 237.063 249.045C236.923 248.905 237.063 248.484 237.344 248.624C240.291 249.747 242.676 253.255 243.378 256.202Z" fill="#023246"/>
<path d="M241.554 204.137C243.519 216.908 231.73 227.574 219.942 229.118C208.855 230.521 197.628 224.627 194.681 213.259C191.453 200.769 201.978 189.261 213.486 186.314C213.767 186.455 214.047 186.455 214.468 186.455C221.766 184.63 229.485 184.209 234.818 190.384C238.045 194.033 240.852 199.366 241.554 204.137ZM229.064 192.629C229.485 193.051 230.327 192.77 230.327 192.068C230.327 190.805 229.064 189.682 228.081 188.981C226.959 188.139 225.696 187.718 224.292 187.577C223.45 187.437 223.31 188.7 224.152 188.981C225.134 189.261 226.257 189.682 227.099 190.384C227.941 190.945 228.362 191.928 229.064 192.629ZM227.941 194.735C228.362 195.296 229.485 195.015 229.204 194.173C228.502 192.349 226.397 191.226 224.433 191.366C223.871 191.366 223.871 192.208 224.433 192.349C226.117 192.489 227.099 193.472 227.941 194.735Z" fill="#F5F5F5"/>
<path d="M241.416 257.888C241.837 258.73 240.574 259.572 240.153 258.73C239.03 256.625 237.907 254.801 236.223 253.257C235.802 252.976 236.364 252.275 236.785 252.555C238.609 253.959 240.293 255.783 241.416 257.888Z" fill="#023246"/>
<path d="M230.468 192.069C230.468 192.771 229.626 192.911 229.205 192.63C228.363 192.069 227.942 190.946 227.241 190.385C226.398 189.683 225.416 189.262 224.293 188.982C223.592 188.841 223.732 187.578 224.434 187.578C225.837 187.718 227.1 188.139 228.223 188.982C229.205 189.683 230.328 190.806 230.468 192.069Z" fill="#023246"/>
<path d="M229.204 194.314C229.485 195.016 228.362 195.437 227.941 194.875C227.099 193.472 225.976 192.63 224.433 192.49C223.871 192.49 223.871 191.648 224.433 191.507C226.397 191.367 228.503 192.349 229.204 194.314Z" fill="#023246"/>
<path d="M207.732 323.145C208.013 322.023 209.557 322.584 209.416 323.566C209.136 325.672 208.153 327.636 207.592 329.601C207.452 330.162 206.75 329.882 206.75 329.32C207.031 327.356 207.171 325.11 207.732 323.145Z" fill="#023246"/>
<path d="M205.627 324.128C206.048 323.426 207.311 323.847 207.03 324.689C206.048 327.075 205.346 329.18 205.206 331.706C205.206 332.408 204.083 332.408 204.083 331.706C203.943 329.32 204.223 326.373 205.627 324.128Z" fill="#023246"/>
<path d="M188.084 292.831C188.224 295.217 186.119 296.901 183.874 297.462C181.628 298.024 177.559 297.883 177.699 294.796C177.839 292.129 180.365 290.726 182.47 289.463C182.891 289.182 182.891 288.761 182.751 288.48C183.172 288.761 183.593 288.761 184.014 288.621C184.154 288.901 184.435 289.042 184.716 289.042C186.821 289.323 187.944 290.866 188.084 292.831Z" fill="#F5F5F5"/>
<path d="M152.648 164.477C155.297 165.454 156.578 168.126 156.438 170.933C156.297 173.599 154.332 175.844 151.806 176.406C159.244 199.562 157.28 228.893 137.632 245.453C137.913 248.26 137.913 250.926 138.193 252.47C141.983 276.889 148.719 300.185 155.596 323.903C155.876 324.745 155.455 325.166 154.894 325.447C155.034 325.868 154.894 326.429 154.473 326.85C150.824 330.218 146.473 334.428 141.562 335.832C141 335.972 140.439 335.832 140.018 335.411C135.246 330.639 132.861 321.938 131.036 315.763C129.913 311.974 129.633 305.378 127.528 302.291C125.001 298.361 117.283 300.326 112.652 300.747C112.792 307.202 112.792 313.798 112.652 320.254C112.511 324.745 113.494 331.902 111.81 335.972C109.704 341.445 100.723 339.761 95.3898 339.06C95.2495 339.06 95.2495 339.2 95.1091 339.2C90.0569 340.884 89.6359 335.832 89.6359 332.043C89.7762 319.272 90.6183 306.501 91.4603 293.73C92.3023 280.398 93.4251 267.065 94.8285 253.733C95.1091 250.926 95.1091 247.558 95.5302 244.19C84.303 242.506 74.6195 235.348 69.1463 225.384C62.41 213.175 63.673 197.036 64.7958 183.703C61.989 183.703 59.3225 181.177 59.0418 178.23C58.6208 174.441 61.4276 170.933 65.2168 170.371C65.6378 170.371 65.9185 170.231 66.3395 170.231C69.7076 170.231 73.4968 172.336 73.9178 175.985C74.3389 179.493 71.111 182.861 67.7429 183.282C67.6025 183.282 67.6026 183.282 67.6026 183.282C67.7429 195.071 65.6378 208.403 69.848 219.771C74.1985 231.419 84.4433 238.857 95.9512 242.506C96.5125 239.418 97.6352 236.612 100.021 234.787C100.161 234.366 100.582 234.085 101.144 233.945C105.494 233.524 109.845 233.103 114.336 232.682C114.055 231.279 114.055 229.595 114.055 228.191C112.932 228.191 111.81 228.051 110.687 227.91C95.5301 225.946 82.0575 214.859 84.5837 198.579C86.8291 183.703 101.565 171.354 116.581 175.704C116.721 175.704 116.721 175.704 116.862 175.704C131.878 176.265 144.509 188.054 143.246 203.632C141.983 217.666 130.475 227.068 117.142 228.051C117.142 228.893 117.002 229.875 117.002 230.717C117.002 231.279 117.002 231.84 116.862 232.401C118.546 232.261 120.09 232.121 121.774 231.98C125.001 231.7 129.492 230.437 132.58 231.98C135.808 233.524 136.93 237.875 137.492 242.365C144.088 233.805 149.561 225.104 151.806 214.017C154.473 200.965 151.105 189.177 149.28 176.406C149.28 176.265 149.28 176.125 149.28 176.125C146.052 176.967 142.684 174.02 142.404 170.792C142.123 168.126 143.263 165.954 145.631 164.477C147.5 163.5 150.5 163.5 152.648 164.477ZM149.561 173.459C151.806 174.16 153.911 172.336 153.49 169.95C153.069 167.705 150.824 166.301 148.579 166.582C146.333 166.863 144.789 168.968 145.21 171.213C145.491 172.897 146.614 173.599 148.017 174.16C148.158 173.459 148.719 173.178 149.561 173.459ZM152.087 324.605C152.227 324.464 152.368 324.464 152.508 324.324C145.351 305.799 140.86 285.871 137.211 266.364C136.229 261.452 135.527 256.54 134.685 251.488C134.264 248.26 134.404 240.12 132.72 237.594C130.615 234.366 123.317 234.226 115.879 234.787C115.599 235.068 115.037 235.208 114.616 234.927C109.143 235.348 103.951 236.191 101.144 236.331C97.4949 244.05 97.7756 254.154 97.0739 262.574C96.3722 270.714 95.6705 278.854 95.1091 286.853C94.8285 290.502 92.162 336.674 94.2671 336.393C94.6881 336.253 95.1091 336.533 95.5302 336.674C98.6176 336.674 102.547 337.095 104.933 336.253C109.564 334.709 109.003 328.815 109.143 324.464C109.424 316.184 109.424 308.044 109.283 299.764C109.283 298.642 110.266 298.221 111.108 298.221H111.248C119.248 296.817 128.229 293.168 130.755 302.712C132.299 308.606 133.562 314.5 135.667 320.254C136.65 322.78 137.632 328.394 139.877 330.078C144.649 333.165 149 327.271 152.087 324.605ZM139.316 205.737C142.123 191.282 130.475 179.353 116.441 178.932C115.599 178.932 115.037 178.23 114.897 177.669C102.266 177.809 90.8989 183.423 87.6711 196.895C84.0223 212.192 96.3722 222.858 110.546 224.683C123.598 226.367 136.65 219.209 139.316 205.737ZM71.111 177.248C71.6724 174.581 68.3043 172.897 66.0588 173.038C63.673 173.178 61.7083 175.143 61.7083 177.529C61.8486 180.055 64.0941 181.458 66.4798 181.598C66.4798 181.318 66.7605 181.037 67.0412 180.897C68.5849 180.195 70.69 179.353 71.111 177.248Z" fill="#023246"/>
<path d="M153.349 169.95C153.77 172.335 151.665 174.16 149.42 173.458C148.578 173.178 148.157 173.599 147.876 174.16C146.473 173.739 145.35 172.897 145.069 171.213C144.648 168.967 146.192 166.862 148.437 166.582C150.683 166.301 152.928 167.564 153.349 169.95Z" fill="#F5F5F5"/>
<path d="M152.509 324.324C152.369 324.324 152.229 324.464 152.088 324.605C149.001 327.271 144.65 333.165 140.019 329.938C137.633 328.253 136.651 322.78 135.809 320.114C133.704 314.36 132.441 308.466 130.897 302.571C128.371 293.028 119.389 296.817 111.39 298.08C111.249 298.08 111.249 298.08 111.249 298.08C110.407 297.94 109.425 298.501 109.425 299.624C109.565 307.904 109.565 316.044 109.285 324.324C109.144 328.674 109.706 334.428 105.074 336.112C102.689 336.955 98.7591 336.534 95.6717 336.534C95.391 336.253 94.97 336.112 94.4086 336.253C92.3035 336.534 94.97 290.502 95.2506 286.713C95.812 278.573 96.5137 270.434 97.2154 262.434C98.0574 254.014 97.6364 243.909 101.285 236.191C104.092 236.05 109.285 235.349 114.758 234.787C115.179 235.068 115.74 234.928 116.021 234.647C123.319 234.086 130.757 234.226 132.862 237.454C134.546 239.98 134.265 248.12 134.826 251.347C135.528 256.259 136.37 261.311 137.353 266.223C140.861 286.011 145.352 305.939 152.509 324.324ZM143.247 325.306C143.668 326.148 144.791 325.447 144.51 324.605C143.668 322.64 142.966 320.535 141.843 318.71C141.282 317.868 139.598 318.43 140.019 319.412C140.861 321.517 142.264 323.342 143.247 325.306ZM141.422 328.394C141.843 328.955 142.545 328.534 142.405 327.973C142.124 326.71 141.703 325.306 141.282 324.043C140.861 322.921 140.58 321.517 139.879 320.535C139.458 319.973 138.195 320.114 138.335 320.956C138.475 322.219 139.037 323.342 139.598 324.464C140.159 325.868 140.58 327.131 141.422 328.394ZM102.548 254.154C102.829 253.172 101.285 252.751 101.005 253.733C100.724 255.137 100.584 256.54 100.303 258.084C100.163 258.785 101.285 259.206 101.426 258.364C101.847 256.961 102.268 255.558 102.548 254.154ZM99.1802 261.311C99.6012 259.206 100.163 256.68 100.022 254.575C100.022 253.733 98.7591 253.593 98.6188 254.435C98.0574 256.54 98.1978 259.066 98.3381 261.311C98.3381 261.732 99.0398 261.873 99.1802 261.311Z" fill="#F5F5F5"/>
<path d="M144.507 324.604C144.928 325.446 143.805 326.147 143.244 325.305C142.121 323.341 140.858 321.516 140.016 319.411C139.595 318.429 141.279 317.727 141.84 318.709C142.963 320.534 143.665 322.639 144.507 324.604Z" fill="#023246"/>
<path d="M142.405 327.972C142.545 328.674 141.703 328.954 141.423 328.393C140.721 327.13 140.159 325.867 139.598 324.464C139.037 323.341 138.475 322.218 138.335 320.955C138.195 320.113 139.458 319.973 139.879 320.534C140.58 321.516 140.861 322.78 141.282 324.043C141.703 325.306 142.265 326.569 142.405 327.972Z" fill="#023246"/>
<path d="M116.44 178.933C130.334 179.354 142.122 191.423 139.315 205.738C136.649 219.21 123.597 226.368 110.546 224.543C96.3714 222.578 84.0215 212.053 87.6704 196.756C90.8982 183.283 102.266 177.67 114.896 177.529C115.037 178.231 115.598 178.933 116.44 178.933ZM101.845 215.561C102.827 215.842 103.108 214.439 102.266 214.158C100.722 213.456 99.3186 212.755 98.3362 211.492C97.9152 210.93 97.0731 211.632 97.4942 212.193C98.3362 213.597 99.8799 215 101.845 215.561ZM100.02 217.666C100.862 217.947 101.143 216.684 100.301 216.403C97.0731 215.14 94.8277 213.316 93.0033 210.369C92.7226 209.948 92.0209 210.228 92.1612 210.79C93.5646 214.018 96.7924 216.824 100.02 217.666Z" fill="#F5F5F5"/>
<path d="M101.003 253.733C101.284 252.751 102.827 253.172 102.547 254.154C102.266 255.557 101.705 256.961 101.424 258.364C101.284 259.066 100.161 258.785 100.301 258.084C100.582 256.68 100.722 255.136 101.003 253.733Z" fill="#023246"/>
<path d="M102.125 214.158C102.967 214.579 102.686 215.842 101.704 215.561C99.8792 215 98.3355 213.596 97.2128 212.053C96.7918 211.491 97.7741 210.79 98.0548 211.351C99.3179 212.754 100.581 213.456 102.125 214.158Z" fill="#023246"/>
<path d="M100.444 216.542C101.286 216.823 100.865 218.086 100.163 217.805C96.7947 216.823 93.7072 214.156 92.4441 210.929C92.3038 210.367 93.0055 210.227 93.2862 210.508C94.9703 213.455 97.0753 215.279 100.444 216.542Z" fill="#023246"/>
<path d="M100.022 254.574C100.162 256.679 99.6009 259.205 99.1799 261.311C99.0395 261.872 98.3378 261.732 98.3378 261.17C98.1975 258.925 98.1975 256.399 98.6185 254.294C98.7589 253.452 100.022 253.732 100.022 254.574Z" fill="#023246"/>
<path d="M66.0603 173.179C68.3057 173.038 71.6739 174.582 71.1125 177.389C70.6915 179.494 68.7267 180.336 67.0427 181.178C66.762 181.318 66.4813 181.599 66.4813 181.88C64.2359 181.739 61.8501 180.336 61.7098 177.81C61.5694 175.284 63.6745 173.319 66.0603 173.179Z" fill="#F5F5F5"/>
</svg>
