<svg width="28" height="28" viewBox="0 0 28 28" fill="none" xmlns="http://www.w3.org/2000/svg">
<path d="M20.25 1.5H7.75C4.29822 1.5 1.5 4.29822 1.5 7.75V20.25C1.5 23.7018 4.29822 26.5 7.75 26.5H20.25C23.7018 26.5 26.5 23.7018 26.5 20.25V7.75C26.5 4.29822 23.7018 1.5 20.25 1.5Z" stroke="#2FD09A" stroke-width="2" stroke-linecap="round" stroke-linejoin="round"/>
<path d="M19.0001 13.2124C19.1544 14.2527 18.9767 15.3152 18.4923 16.2487C18.0079 17.1822 17.2416 17.9392 16.3022 18.412C15.3628 18.8848 14.2982 19.0494 13.2599 18.8823C12.2215 18.7152 11.2623 18.225 10.5187 17.4813C9.77502 16.7377 9.28479 15.7785 9.11771 14.7402C8.95063 13.7018 9.1152 12.6373 9.58803 11.6979C10.0609 10.7585 10.8179 9.99206 11.7514 9.50769C12.6849 9.02332 13.7473 8.84562 14.7876 8.99989C15.8488 9.15724 16.8312 9.65172 17.5897 10.4103C18.3483 11.1688 18.8428 12.1512 19.0001 13.2124Z" stroke="#2FD09A" stroke-width="2" stroke-linecap="round" stroke-linejoin="round"/>
<path d="M20.875 7.125H20.8875" stroke="#2FD09A" stroke-width="2" stroke-linecap="round" stroke-linejoin="round"/>
</svg>
