<svg width="91" height="80" viewBox="0 0 91 80" fill="none" xmlns="http://www.w3.org/2000/svg">
<path d="M27.0435 36.4529L8.53288 25.9928L0.239041 41.1148C-1.76411 49.377 9.21387 52.4091 18.0288 51.9163L27.0435 36.4529V36.4529Z" fill="#2FD09A"/>
<g filter="url(#filter0_d)">
<path d="M40.9777 25.445L21.224 25.6054L10.7115 9.55103L16.9235 12.5533L21.2409 5.19725C22.5711 2.3843 26.4697 -0.11962 29.9253 0.00442212L53.7535 0.163555C48.6677 1.56772 45.4764 5.13107 42.7706 9.74124L35.4776 22.167L40.9777 25.445ZM85.9303 26.3616L80.1508 30.5424L85.5904 40.1903C88.3104 44.6389 83.6379 48.9726 80.6608 50.4811C77.73 51.9663 73.1813 52.1426 68.9317 52.0894L61.2821 40.5122L55.5026 43.4064L65.532 26.2013L85.9303 26.3616Z" fill="#2FD09A"/>
</g>
<path d="M31.2502 47.2548L40.9863 63.5135L31.2502 80L31.0097 73.4051H22.1154C18.8698 73.6705 14.6628 71.6618 13.1005 68.7436L1.68166 48.96C5.4478 52.4846 10.291 53.3941 15.8649 53.3941H30.8899L31.2502 47.2548ZM53.0034 27.2087L71.6562 16.9775L61.705 2.77827C55.0408 -2.88887 46.9096 4.71862 43.0867 12.2479L53.0034 27.2087Z" fill="#2FD09A"/>
<path d="M26.7282 34.1796H29.2032C30.3582 34.1796 30.6552 34.8396 30.6552 35.7306V36.8526C30.6552 37.7436 30.3582 38.4036 29.2032 38.4036H26.7282V34.1796ZM25.5402 51.9996C26.3652 51.9996 26.7282 51.6366 26.7282 50.8116V44.3436H31.3482C32.2722 44.3436 32.6022 44.7726 32.6022 45.7626V50.8116C32.6022 51.6366 32.9652 51.9996 33.7902 51.9996H38.9052C39.7302 51.9996 40.0932 51.6366 40.0932 50.8116V43.8156C40.0932 41.0436 38.5092 39.2946 36.1002 39.0306C37.4862 38.4366 37.9482 37.1166 37.9482 35.2686V33.7506C37.9482 30.4836 36.3972 28.2396 31.4472 28.2396H20.4582C19.6332 28.2396 19.2702 28.6026 19.2702 29.4276V50.8116C19.2702 51.6366 19.6332 51.9996 20.4582 51.9996H25.5402ZM49.8996 51.9996C50.7246 51.9996 51.0876 51.6366 51.0876 50.8116V39.1956L53.0346 42.7926C53.4306 43.5516 53.9256 43.8486 54.7836 43.8486H56.1036C56.9616 43.8486 57.4566 43.5516 57.8526 42.7926L59.7996 39.1956V50.8116C59.7996 51.6366 60.1296 51.9996 60.9876 51.9996H66.0696C66.8946 51.9996 67.2576 51.6366 67.2576 50.8116V29.4276C67.2576 28.6026 66.8946 28.2396 66.0696 28.2396H60.7236C60.0306 28.2396 59.6016 28.5036 59.2056 29.2296L56.2686 34.6086C56.0376 35.0046 55.9386 35.1696 55.6746 35.1696H55.3776C55.1136 35.1696 55.0146 35.0046 54.7836 34.6086L51.8136 29.2296C51.4176 28.5036 50.9886 28.2396 50.2956 28.2396H44.9826C44.1576 28.2396 43.7946 28.6026 43.7946 29.4276V50.8116C43.7946 51.6366 44.1576 51.9996 44.9826 51.9996H49.8996Z" fill="#F6F6F6"/>
<path d="M31.2507 47.2549L40.9868 63.5136L31.2507 80.0001L31.0103 73.4052H22.116C18.8703 73.6706 14.6634 71.6619 13.101 68.7437L1.6822 48.9601C5.44834 52.4847 10.2915 53.3942 15.8654 53.3942H30.8905L31.2507 47.2549Z" fill="#02437B"/>
<path d="M85.0811 48.7123L72.6719 69.9373C70.1789 72.8851 65.4758 73.5819 60.6027 73.4745H47.5138V53.3751L72.332 53.2144C76.1849 53.429 81.2279 52.6785 85.0811 48.7123V48.7123Z" fill="#02437B"/>
<g filter="url(#filter1_d)">
<path d="M40.978 25.445L21.2243 25.6054L10.7119 9.55102L16.9238 12.5533L21.2413 5.19725C22.5715 2.3843 26.4701 -0.11962 29.9257 0.00442212L53.7539 0.163555C48.6681 1.56772 45.4767 5.13107 42.771 9.74124L35.4779 22.167L40.978 25.445Z" fill="#02437B"/>
</g>
<defs>
<filter id="filter0_d" x="6.71143" y="0" width="83.6987" height="60.0974" filterUnits="userSpaceOnUse" color-interpolation-filters="sRGB">
<feFlood flood-opacity="0" result="BackgroundImageFix"/>
<feColorMatrix in="SourceAlpha" type="matrix" values="0 0 0 0 0 0 0 0 0 0 0 0 0 0 0 0 0 0 127 0"/>
<feOffset dy="4"/>
<feGaussianBlur stdDeviation="2"/>
<feColorMatrix type="matrix" values="0 0 0 0 0 0 0 0 0 0 0 0 0 0 0 0 0 0 0.25 0"/>
<feBlend mode="normal" in2="BackgroundImageFix" result="effect1_dropShadow"/>
<feBlend mode="normal" in="SourceGraphic" in2="effect1_dropShadow" result="shape"/>
</filter>
<filter id="filter1_d" x="6.71191" y="0" width="51.0421" height="33.6054" filterUnits="userSpaceOnUse" color-interpolation-filters="sRGB">
<feFlood flood-opacity="0" result="BackgroundImageFix"/>
<feColorMatrix in="SourceAlpha" type="matrix" values="0 0 0 0 0 0 0 0 0 0 0 0 0 0 0 0 0 0 127 0"/>
<feOffset dy="4"/>
<feGaussianBlur stdDeviation="2"/>
<feColorMatrix type="matrix" values="0 0 0 0 0 0 0 0 0 0 0 0 0 0 0 0 0 0 0.25 0"/>
<feBlend mode="normal" in2="BackgroundImageFix" result="effect1_dropShadow"/>
<feBlend mode="normal" in="SourceGraphic" in2="effect1_dropShadow" result="shape"/>
</filter>
</defs>
</svg>
