<svg width="38" height="38" viewBox="0 0 38 38" fill="none" xmlns="http://www.w3.org/2000/svg">
<g filter="url(#filter0_d)">
<rect x="4" width="30" height="30" rx="4" fill="white"/>
</g>
<path d="M30.7857 0H7.21429C6.3618 0 5.54424 0.338647 4.94144 0.941443C4.33865 1.54424 4 2.3618 4 3.21429V26.7857C4 27.6382 4.33865 28.4558 4.94144 29.0586C5.54424 29.6614 6.3618 30 7.21429 30H30.7857C31.6382 30 32.4558 29.6614 33.0586 29.0586C33.6614 28.4558 34 27.6382 34 26.7857V3.21429C34 2.3618 33.6614 1.54424 33.0586 0.941443C32.4558 0.338647 31.6382 0 30.7857 0ZM29.6882 20.5828L28.6837 24.9355C28.6327 25.1568 28.5082 25.3543 28.3305 25.4957C28.1528 25.6371 27.9325 25.7142 27.7054 25.7143C16.9911 25.7143 8.28571 17.0283 8.28571 6.29464C8.29369 6.06968 8.37365 5.85321 8.51385 5.6771C8.65404 5.50098 8.84706 5.37451 9.06451 5.31629L13.4172 4.31183C13.4914 4.29613 13.567 4.28739 13.6429 4.28571C13.8371 4.29552 14.0252 4.35714 14.1876 4.46418C14.3499 4.57122 14.4807 4.71977 14.5663 4.89442L16.5752 9.58192C16.6244 9.70831 16.6518 9.84213 16.6563 9.97768C16.6399 10.275 16.5077 10.5541 16.2879 10.7551V10.7551C14.7968 11.9751 14.282 14.0954 15.451 15.6269C16.2905 16.7267 17.2733 17.7095 18.3731 18.549C19.9046 19.718 22.0249 19.2032 23.2449 17.7121V17.7121C23.4459 17.4923 23.725 17.3601 24.0223 17.3438C24.1579 17.3481 24.2917 17.3755 24.4181 17.4248L29.1056 19.4337C29.2803 19.5192 29.4289 19.6499 29.536 19.8123C29.6431 19.9747 29.7046 20.1629 29.7143 20.3571C29.7129 20.433 29.7042 20.5086 29.6882 20.5828Z" fill="#2FD09A"/>
<defs>
<filter id="filter0_d" x="0" y="0" width="38" height="38" filterUnits="userSpaceOnUse" color-interpolation-filters="sRGB">
<feFlood flood-opacity="0" result="BackgroundImageFix"/>
<feColorMatrix in="SourceAlpha" type="matrix" values="0 0 0 0 0 0 0 0 0 0 0 0 0 0 0 0 0 0 127 0"/>
<feOffset dy="4"/>
<feGaussianBlur stdDeviation="2"/>
<feColorMatrix type="matrix" values="0 0 0 0 0.533333 0 0 0 0 0.533333 0 0 0 0 0.533333 0 0 0 0.25 0"/>
<feBlend mode="normal" in2="BackgroundImageFix" result="effect1_dropShadow"/>
<feBlend mode="normal" in="SourceGraphic" in2="effect1_dropShadow" result="shape"/>
</filter>
</defs>
</svg>
