<svg width="87" height="80" viewBox="0 0 87 80" fill="none" xmlns="http://www.w3.org/2000/svg">
<g clip-path="url(#clip0)">
<path d="M27.0503 36.4532L8.53971 25.9932L0.245876 41.1151C-1.75728 49.3772 9.22071 52.4093 18.0356 51.9165L27.0503 36.4532Z" fill="#2FD09A"/>
<g filter="url(#filter0_d)">
<path d="M40.9845 25.4453L21.2308 25.6057L10.7183 9.55145L16.9303 12.5537L21.2478 5.19771C22.578 2.38478 26.4766 -0.119131 29.9321 0.00491037L53.7604 0.164042C48.6746 1.5682 45.4832 5.13153 42.7775 9.74167L35.4844 22.1673L40.9845 25.4453ZM85.9371 26.3619L80.1576 30.5427L85.5972 40.1905C88.3172 44.6391 83.6447 48.9728 80.6676 50.4813C77.7368 51.9664 73.1881 52.1428 68.9386 52.0895L61.289 40.5125L55.5095 43.4067L65.5388 26.2016L85.9371 26.3619Z" fill="#2FD09A"/>
</g>
<path d="M31.2575 47.255L40.9936 63.5136L31.2575 80L31.017 73.4052H22.1228C18.8771 73.6705 14.6701 71.6618 13.1078 68.7436L1.689 48.9602C5.45514 52.4847 10.2983 53.3943 15.8722 53.3943H30.8973L31.2575 47.255ZM53.0107 27.209L71.6636 16.9779L61.7123 2.77875C55.0481 -2.88836 46.9169 4.71908 43.094 12.2483L53.0107 27.209Z" fill="#2FD09A"/>
<path d="M26.735 34.18H29.21C30.365 34.18 30.662 34.84 30.662 35.731V36.853C30.662 37.744 30.365 38.404 29.21 38.404H26.735V34.18ZM25.547 52C26.372 52 26.735 51.637 26.735 50.812V44.344H31.355C32.279 44.344 32.609 44.773 32.609 45.763V50.812C32.609 51.637 32.972 52 33.797 52H38.912C39.737 52 40.1 51.637 40.1 50.812V43.816C40.1 41.044 38.516 39.295 36.107 39.031C37.493 38.437 37.955 37.117 37.955 35.269V33.751C37.955 30.484 36.404 28.24 31.454 28.24H20.465C19.64 28.24 19.277 28.603 19.277 29.428V50.812C19.277 51.637 19.64 52 20.465 52H25.547ZM49.9064 52C50.7314 52 51.0944 51.637 51.0944 50.812V39.196L53.0414 42.793C53.4374 43.552 53.9324 43.849 54.7904 43.849H56.1104C56.9684 43.849 57.4634 43.552 57.8594 42.793L59.8064 39.196V50.812C59.8064 51.637 60.1364 52 60.9944 52H66.0764C66.9014 52 67.2644 51.637 67.2644 50.812V29.428C67.2644 28.603 66.9014 28.24 66.0764 28.24H60.7304C60.0374 28.24 59.6084 28.504 59.2124 29.23L56.2754 34.609C56.0444 35.005 55.9454 35.17 55.6814 35.17H55.3844C55.1204 35.17 55.0214 35.005 54.7904 34.609L51.8204 29.23C51.4244 28.504 50.9954 28.24 50.3024 28.24H44.9894C44.1644 28.24 43.8014 28.603 43.8014 29.428V50.812C43.8014 51.637 44.1644 52 44.9894 52H49.9064Z" fill="#EEEEEE"/>
<path d="M31.2571 47.255L40.9932 63.5136L31.2571 80L31.0166 73.4052H22.1223C18.8767 73.6705 14.6697 71.6618 13.1074 68.7436L1.68855 48.9602C5.45469 52.4847 10.2979 53.3943 15.8718 53.3943H30.8968L31.2571 47.255Z" fill="#02437B"/>
<path d="M85.0874 48.7124L72.6783 69.9373C70.1852 72.885 65.4822 73.5819 60.609 73.4745H47.5202V53.3752L72.3384 53.2145C76.1913 53.429 81.2342 52.6786 85.0874 48.7124Z" fill="#02437B"/>
<g filter="url(#filter1_d)">
<path d="M40.9844 25.4453L21.2307 25.6057L10.7182 9.55145L16.9302 12.5537L21.2477 5.19771C22.5778 2.38478 26.4764 -0.119131 29.932 0.00491037L53.7603 0.164042C48.6744 1.5682 45.4831 5.13153 42.7773 9.74167L35.4843 22.1673L40.9844 25.4453Z" fill="#02437B"/>
</g>
</g>
<defs>
<filter id="filter0_d" x="6.71826" y="0.000488281" width="83.6987" height="60.0971" filterUnits="userSpaceOnUse" color-interpolation-filters="sRGB">
<feFlood flood-opacity="0" result="BackgroundImageFix"/>
<feColorMatrix in="SourceAlpha" type="matrix" values="0 0 0 0 0 0 0 0 0 0 0 0 0 0 0 0 0 0 127 0"/>
<feOffset dy="4"/>
<feGaussianBlur stdDeviation="2"/>
<feColorMatrix type="matrix" values="0 0 0 0 0 0 0 0 0 0 0 0 0 0 0 0 0 0 0.25 0"/>
<feBlend mode="normal" in2="BackgroundImageFix" result="effect1_dropShadow"/>
<feBlend mode="normal" in="SourceGraphic" in2="effect1_dropShadow" result="shape"/>
</filter>
<filter id="filter1_d" x="6.71826" y="0.000488281" width="51.0421" height="33.6052" filterUnits="userSpaceOnUse" color-interpolation-filters="sRGB">
<feFlood flood-opacity="0" result="BackgroundImageFix"/>
<feColorMatrix in="SourceAlpha" type="matrix" values="0 0 0 0 0 0 0 0 0 0 0 0 0 0 0 0 0 0 127 0"/>
<feOffset dy="4"/>
<feGaussianBlur stdDeviation="2"/>
<feColorMatrix type="matrix" values="0 0 0 0 0 0 0 0 0 0 0 0 0 0 0 0 0 0 0.25 0"/>
<feBlend mode="normal" in2="BackgroundImageFix" result="effect1_dropShadow"/>
<feBlend mode="normal" in="SourceGraphic" in2="effect1_dropShadow" result="shape"/>
</filter>
<clipPath id="clip0">
<rect width="86.4234" height="80" transform="matrix(-1 0 0 1 86.4233 0)" fill="white"/>
</clipPath>
</defs>
</svg>
