<svg width="105" height="103" viewBox="0 0 105 103" fill="none" xmlns="http://www.w3.org/2000/svg">
<path d="M91.9652 5.61792H2.41685C1.08206 5.61792 0 6.69998 0 8.03477V97.5831C0 98.9179 1.08206 99.9999 2.41685 99.9999H91.9652C93.3 99.9999 94.382 98.9179 94.382 97.5831V8.03477C94.382 6.69998 93.3 5.61792 91.9652 5.61792Z" fill="#2FD09A"/>
<g filter="url(#filter0_d)">
<path d="M97.9652 0H8.41685C7.08206 0 6 1.08206 6 2.41685V91.9652C6 93.3 7.08206 94.382 8.41685 94.382H97.9652C99.3 94.382 100.382 93.3 100.382 91.9652V2.41685C100.382 1.08206 99.3 0 97.9652 0Z" fill="#02437B"/>
<g filter="url(#filter1_i)">
<path d="M30.6009 37.3411H33.9009C35.4409 37.3411 35.8369 38.2211 35.8369 39.4091V40.9051C35.8369 42.0931 35.4409 42.9731 33.9009 42.9731H30.6009V37.3411ZM29.0169 61.1011C30.1169 61.1011 30.6009 60.6171 30.6009 59.5171V50.8931H36.7609C37.9929 50.8931 38.4329 51.4651 38.4329 52.7851V59.5171C38.4329 60.6171 38.9169 61.1011 40.0169 61.1011H46.8369C47.9369 61.1011 48.4209 60.6171 48.4209 59.5171V50.1891C48.4209 46.4931 46.3089 44.1611 43.0969 43.8091C44.9449 43.0171 45.5609 41.2571 45.5609 38.7931V36.7691C45.5609 32.4131 43.4929 29.4211 36.8929 29.4211H22.2409C21.1409 29.4211 20.6569 29.9051 20.6569 31.0051V59.5171C20.6569 60.6171 21.1409 61.1011 22.2409 61.1011H29.0169ZM61.4961 61.1011C62.5961 61.1011 63.0801 60.6171 63.0801 59.5171V44.0291L65.6761 48.8251C66.2041 49.8371 66.8641 50.2331 68.0081 50.2331H69.7681C70.9121 50.2331 71.5721 49.8371 72.1001 48.8251L74.6961 44.0291V59.5171C74.6961 60.6171 75.1361 61.1011 76.2801 61.1011H83.0561C84.1561 61.1011 84.6401 60.6171 84.6401 59.5171V31.0051C84.6401 29.9051 84.1561 29.4211 83.0561 29.4211H75.9281C75.0041 29.4211 74.4321 29.7731 73.9041 30.7411L69.9881 37.9131C69.6801 38.4411 69.5481 38.6611 69.1961 38.6611H68.8001C68.4481 38.6611 68.3161 38.4411 68.0081 37.9131L64.0481 30.7411C63.5201 29.7731 62.9481 29.4211 62.0241 29.4211H54.9401C53.8401 29.4211 53.3561 29.9051 53.3561 31.0051V59.5171C53.3561 60.6171 53.8401 61.1011 54.9401 61.1011H61.4961Z" fill="#2FD09A"/>
</g>
</g>
<defs>
<filter id="filter0_d" x="2" y="0" width="102.382" height="102.382" filterUnits="userSpaceOnUse" color-interpolation-filters="sRGB">
<feFlood flood-opacity="0" result="BackgroundImageFix"/>
<feColorMatrix in="SourceAlpha" type="matrix" values="0 0 0 0 0 0 0 0 0 0 0 0 0 0 0 0 0 0 127 0"/>
<feOffset dy="4"/>
<feGaussianBlur stdDeviation="2"/>
<feColorMatrix type="matrix" values="0 0 0 0 0 0 0 0 0 0 0 0 0 0 0 0 0 0 0.25 0"/>
<feBlend mode="normal" in2="BackgroundImageFix" result="effect1_dropShadow"/>
<feBlend mode="normal" in="SourceGraphic" in2="effect1_dropShadow" result="shape"/>
</filter>
<filter id="filter1_i" x="20.6567" y="29.421" width="63.9832" height="35.68" filterUnits="userSpaceOnUse" color-interpolation-filters="sRGB">
<feFlood flood-opacity="0" result="BackgroundImageFix"/>
<feBlend mode="normal" in="SourceGraphic" in2="BackgroundImageFix" result="shape"/>
<feColorMatrix in="SourceAlpha" type="matrix" values="0 0 0 0 0 0 0 0 0 0 0 0 0 0 0 0 0 0 127 0" result="hardAlpha"/>
<feOffset dy="4"/>
<feGaussianBlur stdDeviation="2"/>
<feComposite in2="hardAlpha" operator="arithmetic" k2="-1" k3="1"/>
<feColorMatrix type="matrix" values="0 0 0 0 0 0 0 0 0 0 0 0 0 0 0 0 0 0 0.25 0"/>
<feBlend mode="normal" in2="shape" result="effect1_innerShadow"/>
</filter>
</defs>
</svg>
