<svg width="178" height="178" viewBox="0 0 178 178" fill="none" xmlns="http://www.w3.org/2000/svg">
<path d="M163.698 10H4.302C1.92607 10 0 11.9261 0 14.302V173.698C0 176.074 1.92607 178 4.302 178H163.698C166.074 178 168 176.074 168 173.698V14.302C168 11.9261 166.074 10 163.698 10Z" fill="#02437B"/>
<path d="M173.698 0H14.302C11.9261 0 10 1.92607 10 4.302V163.698C10 166.074 11.9261 168 14.302 168H173.698C176.074 168 178 166.074 178 163.698V4.302C178 1.92607 176.074 0 173.698 0Z" fill="#FADF63"/>
<path d="M66.0279 60.2731C71.1399 60.2731 73.5159 63.2971 73.5159 67.7611V72.8011C73.5159 78.1291 72.0039 81.0811 66.0279 81.0811H50.3319V60.2731H66.0279ZM58.1079 66.0331V75.2491H63.5079C66.0279 75.2491 66.6759 73.8091 66.6759 71.8651V69.4171C66.6759 67.4731 66.0279 66.0331 63.5079 66.0331H58.1079ZM50.3319 98.4331V81.7291H70.7079C76.1799 81.7291 78.6999 84.0331 78.6999 88.7851V98.4331H79.4199V88.7851C79.4199 83.7451 76.6119 81.0811 70.7079 81.0811H69.9159C73.3719 80.0011 74.2359 77.1211 74.2359 72.7291V67.7611C74.2359 63.0091 71.6439 59.5531 66.0279 59.5531H49.6119V98.4331H50.3319ZM55.5159 104.913H44.4279C42.6279 104.913 41.8359 104.121 41.8359 102.321V55.6651C41.8359 53.8651 42.6279 53.0731 44.4279 53.0731H68.4039C79.2039 53.0731 82.5879 57.9691 82.5879 65.0971V68.4091C82.5879 72.4411 81.5799 75.3211 78.5559 76.6171C83.8119 77.1931 87.2679 81.0091 87.2679 87.0571V102.321C87.2679 104.121 86.4759 104.913 84.6759 104.913H73.5159C71.7159 104.913 70.9239 104.121 70.9239 102.321V91.3051C70.9239 89.1451 70.2039 88.2091 68.1879 88.2091H58.1079V102.321C58.1079 104.121 57.3159 104.913 55.5159 104.913ZM57.8199 104.985C58.4679 104.409 58.8279 103.617 58.8279 102.321V96.7771H58.8999C60.4119 96.7771 60.9159 97.5691 60.9159 99.1531V110.169C60.9159 112.473 61.9239 113.481 64.2279 113.481H75.3879C76.3959 113.481 77.1879 113.193 77.6199 112.761L86.9799 104.985C87.6279 104.409 87.9879 103.617 87.9879 102.321V87.0571C87.9879 81.3691 85.0359 77.5531 80.4999 76.2571H80.5719C82.5159 74.6011 83.3079 71.9371 83.3079 68.4091V65.0971C83.3079 57.6091 79.8519 52.3531 68.4039 52.3531H44.4279C43.4199 52.3531 42.6279 52.5691 42.1239 53.0011L32.8359 60.8491C32.1879 61.4251 31.8279 62.2171 31.8279 63.5131V110.169C31.8279 112.473 32.8359 113.481 35.1399 113.481H46.2279C47.2359 113.481 48.0279 113.193 48.4599 112.761L57.8199 104.985ZM127.86 77.1931C126.132 77.1931 125.844 76.6891 124.188 74.1691L115.404 60.7771C114.828 59.8411 114.036 59.5531 113.244 59.5531H112.02C110.724 59.5531 110.148 60.2011 110.148 61.7851V98.4331H110.868V61.7851C110.868 60.9931 111.012 60.2731 112.02 60.2731H113.1C113.748 60.2731 114.252 60.3451 114.828 61.2811L123.612 74.5291C125.34 77.1211 125.772 77.9131 127.86 77.9131C129.948 77.9131 130.38 77.1211 132.108 74.5291L140.892 61.2811C141.468 60.3451 141.9 60.2731 142.548 60.2731H143.628C144.636 60.2731 144.852 60.9931 144.852 61.7851V98.4331H145.572V61.7851C145.572 60.2011 144.996 59.5531 143.628 59.5531H142.404C141.612 59.5531 140.892 59.8411 140.316 60.7771L131.532 74.1691C129.876 76.6891 129.588 77.1931 127.86 77.1931ZM115.836 104.913H105.108C103.308 104.913 102.516 104.121 102.516 102.321V55.6651C102.516 53.8651 103.308 53.0731 105.108 53.0731H116.7C118.212 53.0731 119.148 53.6491 120.012 55.2331L126.492 66.9691C126.996 67.8331 127.212 68.1931 127.788 68.1931H128.436C129.012 68.1931 129.228 67.8331 129.732 66.9691L136.14 55.2331C137.004 53.6491 137.94 53.0731 139.452 53.0731H151.116C152.916 53.0731 153.708 53.8651 153.708 55.6651V102.321C153.708 104.121 152.916 104.913 151.116 104.913H140.028C138.156 104.913 137.436 104.121 137.436 102.321V76.9771L133.188 84.8251C132.324 86.4811 131.244 87.1291 129.372 87.1291H126.492C124.62 87.1291 123.54 86.4811 122.676 84.8251L118.428 76.9771V102.321C118.428 104.121 117.636 104.913 115.836 104.913ZM118.14 104.985C118.788 104.409 119.148 103.617 119.148 102.321V95.6971H120.084C121.452 95.6971 122.388 95.3371 123.18 94.6891L127.428 91.1611V110.169C127.428 112.473 128.364 113.481 130.74 113.481H141.828C142.836 113.481 143.628 113.193 144.06 112.761L153.42 104.985C154.068 104.409 154.428 103.617 154.428 102.321V55.6651C154.428 53.3611 153.42 52.3531 151.116 52.3531H139.452C138.3 52.3531 137.58 52.6411 136.788 53.2171L127.5 60.9931C126.996 61.4251 126.564 62.0011 126.204 62.7211L125.556 63.8731L120.66 54.8731C119.58 53.0011 118.5 52.3531 116.7 52.3531H105.108C104.1 52.3531 103.308 52.5691 102.804 53.0011L93.5156 60.8491C92.8676 61.4251 92.5076 62.2171 92.5076 63.5131V110.169C92.5076 112.473 93.5156 113.481 95.8196 113.481H106.548C107.556 113.481 108.348 113.193 108.78 112.761L118.14 104.985Z" fill="#02437B"/>
</svg>
