<svg width="28" height="26" viewBox="0 0 28 26" fill="none" xmlns="http://www.w3.org/2000/svg">
<path d="M27.75 0.513922C26.553 1.4491 25.2276 2.16436 23.825 2.63216C23.0722 1.67343 22.0717 0.993907 20.9588 0.685494C19.8459 0.377081 18.6744 0.45466 17.6026 0.90774C16.5308 1.36082 15.6106 2.16754 14.9662 3.21879C14.3219 4.27004 13.9846 5.5151 14 6.78558V8.17005C11.8033 8.23314 9.62659 7.69354 7.66376 6.5993C5.70093 5.50505 4.0129 3.89015 2.75 1.89839C2.75 1.89839 -2.25 14.3586 9 19.8965C6.42566 21.832 3.35895 22.8024 0.25 22.6655C11.5 29.5878 25.25 22.6655 25.25 6.74405C25.2488 6.35841 25.2154 5.97372 25.15 5.59494C26.4258 4.20145 27.326 2.44209 27.75 0.513922V0.513922Z" fill="#2FD09A"/>
</svg>
